<?xml version="1.0" encoding="UTF-8" standalone="no"?>
<!-- Created with Inkscape (http://www.inkscape.org/) -->

<svg
   width="166.63132mm"
   height="161.52098mm"
   viewBox="0 0 166.63132 161.52098"
   version="1.1"
   id="svg5"
   xml:space="preserve"
   xmlns:xlink="http://www.w3.org/1999/xlink"
   xmlns="http://www.w3.org/2000/svg"
   xmlns:svg="http://www.w3.org/2000/svg"><defs
     id="defs2"><linearGradient
       id="linearGradient1176"><stop
         style="stop-color:#2d97d5;stop-opacity:1;"
         offset="0"
         id="stop1172" /><stop
         style="stop-color:#2d7ed5;stop-opacity:0.46721312;"
         offset="1"
         id="stop1174" /></linearGradient><linearGradient
       xlink:href="#linearGradient1176"
       id="linearGradient8510"
       gradientUnits="userSpaceOnUse"
       x1="413.50861"
       y1="165.33963"
       x2="413.50861"
       y2="192.61667" /></defs><g
     id="layer6"
     transform="translate(-105.83049,-771.03284)"><path
       id="path8602"
       d="m 217.87452,892.34453 c 15.12345,0 39.33907,7.14235 39.86374,20.722 0.28412,7.3419 -8.19269,12.87229 -19.50251,12.87229 h -30.64637 c -8.92182,0 -20.22915,-0.68598 -19.41672,-14.68764 0.66672,-11.50079 11.56858,-18.90665 29.70186,-18.90665 z"
       style="font-variation-settings:normal;display:inline;fill:#000000;fill-opacity:1;stroke:#000000;stroke-width:13.2292;stroke-linecap:round;stroke-linejoin:miter;stroke-miterlimit:4;stroke-dasharray:none;stroke-dashoffset:0;stroke-opacity:1;paint-order:normal;stop-color:#000000" /><path
       id="path8674"
       d="m 160.06302,892.34453 c 15.12345,0 39.33907,7.14235 39.86374,20.722 0.28412,7.3419 -8.19269,12.87229 -19.50251,12.87229 h -30.64637 c -8.92182,0 -20.22915,-0.68598 -19.41672,-14.68764 0.66672,-11.50079 11.56858,-18.90665 29.70186,-18.90665 z"
       style="font-variation-settings:normal;display:inline;fill:#000000;fill-opacity:1;stroke:#000000;stroke-width:13.2292;stroke-linecap:round;stroke-linejoin:miter;stroke-miterlimit:4;stroke-dasharray:none;stroke-dashoffset:0;stroke-opacity:1;paint-order:normal;stop-color:#000000" /><g
       id="g739"
       transform="translate(-504.78753,443.13594)"><path
         id="path730"
         d="m 664.85056,449.20858 c 15.12345,0 39.33907,7.14235 39.86374,20.722 0.28412,7.3419 -8.19269,12.87229 -19.50251,12.87229 h -30.64637 c -8.92182,0 -20.22915,-0.68598 -19.41672,-14.68764 0.66672,-11.50079 11.56858,-18.90665 29.70186,-18.90665 z"
         style="font-variation-settings:normal;display:inline;fill:#666a7a;fill-opacity:1;stroke:none;stroke-width:5.39105;stroke-linecap:round;stroke-linejoin:miter;stroke-miterlimit:4;stroke-dasharray:none;stroke-dashoffset:0;stroke-opacity:1;paint-order:normal;stop-color:#000000" /><path
         id="path733"
         style="fill:#404352;fill-opacity:1;stroke:#000000;stroke-width:2.11667;stroke-linecap:butt;stroke-linejoin:miter;stroke-dasharray:none;stroke-opacity:1"
         d="m 702.27484,463.17002 -3.78891,3.7889 a 27.899634,27.899634 157.50001 0 1 -19.72801,8.17161 H 636.0427 c 2.80967,7.23738 11.42177,7.6724 18.5229,7.6724 h 30.64619 c 3.2934,0 6.3445,-0.47103 9.01082,-1.31723 1.6e-4,-5e-5 3.6e-4,5e-5 5.2e-4,0 1.6e-4,-5e-5 3.6e-4,5e-5 5.2e-4,0 0.27021,-0.0858 0.5368,-0.1753 0.79891,-0.26872 0.12404,-0.0442 0.2468,-0.0895 0.36897,-0.13539 0.007,-0.003 0.0141,-0.005 0.0212,-0.008 0.0103,-0.004 0.0202,-0.008 0.0305,-0.0119 0.24757,-0.0937 0.49156,-0.19047 0.73122,-0.29093 0.12494,-0.0524 0.24882,-0.1055 0.37156,-0.15968 0.21974,-0.097 0.43551,-0.19701 0.64802,-0.29973 0.0416,-0.0201 0.0832,-0.0401 0.12454,-0.0605 0.0999,-0.0491 0.19942,-0.0984 0.29765,-0.14883 9e-4,-4.6e-4 0.002,-10e-4 0.003,-0.002 0.1158,-0.0594 0.23071,-0.11978 0.34416,-0.18086 0.0778,-0.0419 0.15437,-0.0844 0.231,-0.12713 0.0766,-0.0426 0.15241,-0.0857 0.22789,-0.12919 0.0693,-0.0399 0.13894,-0.0794 0.20722,-0.11989 0.004,-0.003 0.009,-0.005 0.0129,-0.008 0.1192,-0.0708 0.23673,-0.14319 0.35295,-0.21601 0.0636,-0.0399 0.12649,-0.08 0.18914,-0.1204 0.0903,-0.0583 0.17925,-0.11729 0.26768,-0.17674 0.0627,-0.0422 0.12535,-0.0844 0.18707,-0.12712 0.10728,-0.0743 0.21296,-0.14977 0.31729,-0.22583 0.049,-0.0358 0.0979,-0.0713 0.14625,-0.10748 0.11705,-0.0874 0.23308,-0.17594 0.34623,-0.26562 6.8e-4,-5.4e-4 0.001,-10e-4 0.002,-0.002 0.038,-0.0301 0.0746,-0.0611 0.11214,-0.0915 0.0973,-0.0787 0.19304,-0.15787 0.28732,-0.23823 0.0312,-0.0266 0.0626,-0.0533 0.0935,-0.0801 0.11856,-0.10284 0.23474,-0.20718 0.3483,-0.31264 0.0249,-0.0231 0.0492,-0.0465 0.0739,-0.0698 0.10636,-0.10027 0.21084,-0.20132 0.31264,-0.30386 0.0135,-0.0136 0.0274,-0.0272 0.0408,-0.0408 0.11315,-0.11501 0.22289,-0.23156 0.33022,-0.34934 0.0191,-0.0209 0.0379,-0.042 0.0568,-0.063 0.10725,-0.11934 0.21249,-0.23966 0.31368,-0.36174 2.4e-4,-2.9e-4 2.7e-4,-7.4e-4 5.1e-4,-0.001 0.10614,-0.12808 0.20814,-0.25811 0.30748,-0.38912 0.009,-0.0119 0.0179,-0.0238 0.0269,-0.0357 0.0995,-0.13229 0.19592,-0.26583 0.28835,-0.40101 0.0963,-0.1408 0.1885,-0.283 0.27699,-0.42685 0.96857,-1.57452 1.46667,-3.32824 1.39423,-5.2002 -0.0953,-2.4679 -0.97614,-4.72185 -2.43964,-6.76031 z" /><path
         id="path735"
         style="fill:#2a353f;fill-opacity:1;stroke:#000000;stroke-width:2.11667;stroke-linecap:butt;stroke-linejoin:miter;stroke-dasharray:none;stroke-opacity:1"
         d="m 664.85076,449.2086 c -18.13326,0 -29.03534,7.40608 -29.70206,18.90686 -7e-5,0.001 7e-5,0.002 0,0.004 h 16.00729 a 40.7862,40.7862 0 0 0 32.41663,-16.05276 c -6.38436,-1.89271 -13.16626,-2.85771 -18.72186,-2.85771 z" /><path
         id="path737"
         d="m 664.85056,449.20858 c 15.12345,0 39.33907,7.14235 39.86374,20.722 0.28412,7.3419 -8.19269,12.87229 -19.50251,12.87229 h -30.64637 c -8.92182,0 -20.22915,-0.68598 -19.41672,-14.68764 0.66672,-11.50079 11.56858,-18.90665 29.70186,-18.90665 z"
         style="font-variation-settings:normal;display:inline;fill:none;fill-opacity:1;stroke:#000000;stroke-width:4.23333;stroke-linecap:round;stroke-linejoin:miter;stroke-miterlimit:4;stroke-dasharray:none;stroke-dashoffset:0;stroke-opacity:1;paint-order:normal;stop-color:#000000" /></g><g
       id="g8672"
       transform="translate(-427.29782,688.07118)"><g
         id="g8600"
         transform="translate(202.93542)"><circle
           style="fill:#000000;fill-opacity:1;stroke:#000000;stroke-width:13.2292;stroke-linecap:square;stroke-linejoin:miter;stroke-miterlimit:4;stroke-dasharray:none;stroke-dashoffset:0;stroke-opacity:1;paint-order:normal"
           id="circle2613"
           cx="413.50854"
           cy="-169.49251"
           r="59.531235"
           transform="scale(1,-1)" /><path
           id="rect7615"
           style="fill:#000000;fill-opacity:1;stroke:#000000;stroke-width:13.2292;stroke-linecap:round;stroke-linejoin:round;stroke-miterlimit:6;stroke-dasharray:none;stroke-opacity:1;paint-order:normal;stop-color:#000000"
           d="m 487.33063,92.449593 a 9.8385377,9.8224876 0 0 0 -4.35019,-2.523531 l -0.003,-0.0033 -0.002,0.002 a 9.8385377,9.8224876 0 0 0 -9.559,2.525207 9.8385377,9.8224876 0 0 0 -2.52901,9.543071 l -22.10988,22.07382 6.88424,6.87302 22.10989,-22.07382 a 9.8385377,9.8224876 0 0 0 9.55867,-2.52488 9.8385377,9.8224876 0 0 0 2.53068,-9.544746 l 3.4e-4,-3.39e-4 -3.4e-4,-3.39e-4 a 9.8385377,9.8224876 0 0 0 -2.53035,-4.345781 z" /><path
           id="path7559"
           style="fill:#000000;fill-opacity:1;stroke:#000000;stroke-width:13.2292;stroke-linecap:round;stroke-linejoin:round;stroke-miterlimit:6;stroke-dasharray:none;stop-color:#000000"
           d="m 467.71338,127.93653 c 0,0 4.81306,0.61363 10.01679,5.80887 5.20372,5.19523 5.81835,10.00044 5.81835,10.00044 l -18.96933,18.93839 -15.83514,-15.80931 z" /><path
           id="rect7556"
           style="fill:#000000;fill-opacity:1;stroke:#000000;stroke-width:13.2292;stroke-linecap:round;stroke-linejoin:round;stroke-miterlimit:6;stroke-dasharray:none;stop-color:#000000"
           d="m 453.41444,103.05166 c 0,0 7.47373,0.51063 15.12946,8.15387 7.65573,7.64324 8.1672,15.10478 8.1672,15.10478 l -18.96933,18.93839 -23.29666,-23.25866 z" /><path
           id="path8341"
           style="fill:#000000;fill-opacity:1;stroke:#000000;stroke-width:13.2292;stroke-linecap:round;stroke-linejoin:round;stroke-miterlimit:6;stroke-dasharray:none;stroke-opacity:1;paint-order:normal;stop-color:#000000"
           d="m 339.68647,92.449603 a 9.8385377,9.8224876 0 0 1 4.35019,-2.523531 l 0.003,-0.0033 0.002,0.002 a 9.8385377,9.8224876 0 0 1 9.559,2.525207 9.8385377,9.8224876 0 0 1 2.52901,9.543071 l 22.10988,22.07382 -6.88424,6.87302 -22.10989,-22.07382 a 9.8385377,9.8224876 0 0 1 -9.55867,-2.52488 9.8385377,9.8224876 0 0 1 -2.53068,-9.544746 l -3.4e-4,-3.39e-4 3.4e-4,-3.39e-4 a 9.8385377,9.8224876 0 0 1 2.53035,-4.345781 z" /><path
           id="path8349"
           style="fill:#000000;fill-opacity:1;stroke:#000000;stroke-width:13.2292;stroke-linecap:round;stroke-linejoin:round;stroke-miterlimit:6;stroke-dasharray:none;stop-color:#000000"
           d="m 359.30372,127.93654 c 0,0 -4.81306,0.61363 -10.01679,5.80887 -5.20372,5.19523 -5.81835,10.00044 -5.81835,10.00044 l 18.96933,18.93839 15.83514,-15.80931 z" /><path
           id="path8359"
           style="fill:#000000;fill-opacity:1;stroke:#000000;stroke-width:13.2292;stroke-linecap:round;stroke-linejoin:round;stroke-miterlimit:6;stroke-dasharray:none;stop-color:#000000"
           d="m 373.60266,103.05167 c 0,0 -7.47373,0.51063 -15.12946,8.15387 -7.65573,7.64324 -8.1672,15.10478 -8.1672,15.10478 l 18.96933,18.93839 23.29666,-23.25866 z" /></g><g
         id="g8508"
         transform="translate(202.93542)"><g
           id="g8478"
           transform="matrix(0.92329911,0,0,0.92179288,32.737379,8.8957055)"
           style="stroke-width:1.08395"><g
             id="g8436"
             transform="rotate(45,402.74439,335.44594)"
             style="stroke-width:1.08395"><path
               id="path8430"
               style="opacity:1;fill:#2d2f37;fill-opacity:1;stroke:none;stroke-width:4.17117;stroke-linecap:round;stroke-linejoin:round;stroke-miterlimit:6;stroke-dasharray:none;stroke-opacity:1;paint-order:normal;stop-color:#000000"
               d="m 293.00847,98.977938 a 10.655851,10.655851 0 0 0 -5.26738,1.395782 h -0.005 v 0.003 a 10.655851,10.655851 0 0 0 -5.38366,9.25783 10.655851,10.655851 0 0 0 5.38366,9.25732 v 33.86563 h 10.54457 v -33.86563 a 10.655851,10.655851 0 0 0 5.38365,-9.25732 10.655851,10.655851 0 0 0 -5.38365,-9.25989 v -5.2e-4 h -5.2e-4 a 10.655851,10.655851 0 0 0 -5.27151,-1.395782 z" /><path
               id="path8432"
               style="opacity:1;fill:none;fill-opacity:1;stroke:#000000;stroke-width:4.17117;stroke-linecap:round;stroke-linejoin:round;stroke-miterlimit:6;stroke-dasharray:none;stroke-opacity:1;paint-order:normal;stop-color:#000000"
               d="m 293.00847,98.977938 a 10.655851,10.655851 0 0 0 -5.26738,1.395782 h -0.005 v 0.003 a 10.655851,10.655851 0 0 0 -5.38366,9.25783 10.655851,10.655851 0 0 0 5.38366,9.25732 v 33.86563 h 10.54457 v -33.86563 a 10.655851,10.655851 0 0 0 5.38365,-9.25732 10.655851,10.655851 0 0 0 -5.38365,-9.25989 v -5.2e-4 h -5.2e-4 a 10.655851,10.655851 0 0 0 -5.27151,-1.395782 z" /><ellipse
               style="opacity:1;fill:#7d8094;fill-opacity:1;stroke:none;stroke-width:0.357848;stroke-linecap:round;stroke-linejoin:round;stroke-miterlimit:6;stroke-dasharray:none;stroke-opacity:1;paint-order:normal;stop-color:#000000"
               id="ellipse8434"
               cx="310.88785"
               cy="109.31796"
               rx="4.9158688"
               ry="5.0019956"
               transform="matrix(1,0,-0.18477148,0.98278151,0,0)" /></g><g
             id="g8442"
             transform="rotate(45,402.74439,335.44594)"
             style="stroke-width:1.08395"><path
               id="path8438"
               style="opacity:1;fill:#6d7588;fill-opacity:1;stroke:none;stroke-width:4.58875;stroke-linecap:round;stroke-linejoin:round;stroke-miterlimit:6;stroke-dasharray:none;stop-color:#000000"
               d="m 305.20665,141.22378 c 0,0 4.15678,-3.21536 12.12731,-3.21536 7.97053,0 12.12731,3.21536 12.12731,3.21536 v 29.05525 h -24.25462 z" /><path
               id="path8440"
               style="opacity:1;fill:none;stroke:#000000;stroke-width:4.58875;stroke-linecap:round;stroke-linejoin:round;stroke-miterlimit:6;stroke-dasharray:none;stop-color:#000000"
               d="m 305.20665,141.22378 c 0,0 4.15678,-3.21536 12.12731,-3.21536 7.97053,0 12.12731,3.21536 12.12731,3.21536 v 29.05525 h -24.25462 z" /></g><g
             id="g8452"
             transform="rotate(45,402.74439,335.44594)"
             style="stroke-width:1.08395"><path
               id="path8444"
               style="opacity:1;fill:#858b98;fill-opacity:1;stroke:none;stroke-width:4.58875;stroke-linecap:round;stroke-linejoin:round;stroke-miterlimit:6;stroke-dasharray:none;stop-color:#000000"
               d="m 275.16666,133.08542 c 0,0 6.11545,-5.33203 17.8417,-5.33203 11.72625,0 17.8417,5.33203 17.8417,5.33203 v 29.05525 h -35.6834 z" /><path
               style="fill:#c8cbd0;fill-opacity:1;stroke:none;stroke-width:0.287249;stroke-linecap:butt;stroke-linejoin:miter;stroke-dasharray:none;stroke-opacity:1"
               d="m 279.14586,130.66902 0.12184,31.47165 h 8.99584 v -34.08356 z"
               id="path8446" /><path
               style="fill:#6d7588;fill-opacity:1;stroke:none;stroke-width:0.287249;stroke-linecap:butt;stroke-linejoin:miter;stroke-dasharray:none;stroke-opacity:1"
               d="m 299.45531,128.32401 v 33.81666 h 11.39475 v -29.05525 z"
               id="path8448" /><path
               id="path8450"
               style="opacity:1;fill:none;stroke:#000000;stroke-width:4.58875;stroke-linecap:round;stroke-linejoin:round;stroke-miterlimit:6;stroke-dasharray:none;stop-color:#000000"
               d="m 275.16666,133.08542 c 0,0 6.11545,-5.33203 17.8417,-5.33203 11.72625,0 17.8417,5.33203 17.8417,5.33203 v 29.05525 h -35.6834 z" /></g><g
             id="g8460"
             transform="matrix(-0.70710678,0.70710678,0.70710678,0.70710678,469.64847,-186.53344)"
             style="stroke-width:1.08395"><path
               id="path8454"
               style="opacity:1;fill:#2d2f37;fill-opacity:1;stroke:none;stroke-width:4.17117;stroke-linecap:round;stroke-linejoin:round;stroke-miterlimit:6;stroke-dasharray:none;stroke-opacity:1;paint-order:normal;stop-color:#000000"
               d="m 293.00847,98.977938 a 10.655851,10.655851 0 0 0 -5.26738,1.395782 h -0.005 v 0.003 a 10.655851,10.655851 0 0 0 -5.38366,9.25783 10.655851,10.655851 0 0 0 5.38366,9.25732 v 33.86563 h 10.54457 v -33.86563 a 10.655851,10.655851 0 0 0 5.38365,-9.25732 10.655851,10.655851 0 0 0 -5.38365,-9.25989 v -5.2e-4 h -5.2e-4 a 10.655851,10.655851 0 0 0 -5.27151,-1.395782 z" /><path
               id="path8456"
               style="opacity:1;fill:none;fill-opacity:1;stroke:#000000;stroke-width:4.17117;stroke-linecap:round;stroke-linejoin:round;stroke-miterlimit:6;stroke-dasharray:none;stroke-opacity:1;paint-order:normal;stop-color:#000000"
               d="m 293.00847,98.977938 a 10.655851,10.655851 0 0 0 -5.26738,1.395782 h -0.005 v 0.003 a 10.655851,10.655851 0 0 0 -5.38366,9.25783 10.655851,10.655851 0 0 0 5.38366,9.25732 v 33.86563 h 10.54457 v -33.86563 a 10.655851,10.655851 0 0 0 5.38365,-9.25732 10.655851,10.655851 0 0 0 -5.38365,-9.25989 v -5.2e-4 h -5.2e-4 a 10.655851,10.655851 0 0 0 -5.27151,-1.395782 z" /><ellipse
               style="opacity:1;fill:#7d8094;fill-opacity:1;stroke:none;stroke-width:0.357848;stroke-linecap:round;stroke-linejoin:round;stroke-miterlimit:6;stroke-dasharray:none;stroke-opacity:1;paint-order:normal;stop-color:#000000"
               id="ellipse8458"
               cx="310.88785"
               cy="109.31796"
               rx="4.9158688"
               ry="5.0019956"
               transform="matrix(1,0,-0.18477148,0.98278151,0,0)" /></g><g
             id="g8466"
             transform="matrix(-0.70710678,0.70710678,0.70710678,0.70710678,469.64847,-186.53344)"
             style="stroke-width:1.08395"><path
               id="path8462"
               style="opacity:1;fill:#6d7588;fill-opacity:1;stroke:none;stroke-width:4.58875;stroke-linecap:round;stroke-linejoin:round;stroke-miterlimit:6;stroke-dasharray:none;stop-color:#000000"
               d="m 305.20665,141.22378 c 0,0 4.15678,-3.21536 12.12731,-3.21536 7.97053,0 12.12731,3.21536 12.12731,3.21536 v 29.05525 h -24.25462 z" /><path
               id="path8464"
               style="opacity:1;fill:none;stroke:#000000;stroke-width:4.58875;stroke-linecap:round;stroke-linejoin:round;stroke-miterlimit:6;stroke-dasharray:none;stop-color:#000000"
               d="m 305.20665,141.22378 c 0,0 4.15678,-3.21536 12.12731,-3.21536 7.97053,0 12.12731,3.21536 12.12731,3.21536 v 29.05525 h -24.25462 z" /></g><g
             id="g8476"
             transform="matrix(-0.70710678,0.70710678,0.70710678,0.70710678,469.64847,-186.53344)"
             style="stroke-width:1.08395"><path
               id="path8468"
               style="opacity:1;fill:#858b98;fill-opacity:1;stroke:none;stroke-width:4.58875;stroke-linecap:round;stroke-linejoin:round;stroke-miterlimit:6;stroke-dasharray:none;stop-color:#000000"
               d="m 275.16666,133.08542 c 0,0 6.11545,-5.33203 17.8417,-5.33203 11.72625,0 17.8417,5.33203 17.8417,5.33203 v 29.05525 h -35.6834 z" /><path
               style="fill:#c8cbd0;fill-opacity:1;stroke:none;stroke-width:0.287249;stroke-linecap:butt;stroke-linejoin:miter;stroke-dasharray:none;stroke-opacity:1"
               d="m 279.14586,130.66902 0.12184,31.47165 h 8.99584 v -34.08356 z"
               id="path8470" /><path
               style="fill:#6d7588;fill-opacity:1;stroke:none;stroke-width:0.287249;stroke-linecap:butt;stroke-linejoin:miter;stroke-dasharray:none;stroke-opacity:1"
               d="m 299.45531,128.32401 v 33.81666 h 11.39475 v -29.05525 z"
               id="path8472" /><path
               id="path8474"
               style="opacity:1;fill:none;stroke:#000000;stroke-width:4.58875;stroke-linecap:round;stroke-linejoin:round;stroke-miterlimit:6;stroke-dasharray:none;stop-color:#000000"
               d="m 275.16666,133.08542 c 0,0 6.11545,-5.33203 17.8417,-5.33203 11.72625,0 17.8417,5.33203 17.8417,5.33203 v 29.05525 h -35.6834 z" /></g></g><g
           id="g8506"><circle
             transform="scale(1,-1)"
             r="59.531235"
             cy="-169.49251"
             cx="413.50839"
             id="circle8480"
             style="fill:#858b98;fill-opacity:1;stroke:none;stroke-width:3.81;stroke-linecap:square;stroke-linejoin:miter;stroke-miterlimit:4;stroke-dasharray:none;stroke-dashoffset:0;stroke-opacity:1;paint-order:normal" /><path
             id="path8482"
             style="fill:#5a5e6c;fill-opacity:1;stroke:none;stroke-width:4.23333;stroke-linecap:round;stroke-linejoin:bevel;stroke-miterlimit:6;stroke-dasharray:none;stroke-opacity:1;paint-order:normal;stop-color:#000000"
             d="m 413.50839,229.02374 a 59.531235,59.531235 0 0 1 -36.02157,-12.1791 48.633137,18.14325 0 0 1 36.02157,-5.96398 48.633137,18.14325 0 0 1 36.05516,5.97742 59.531235,59.531235 0 0 1 -36.05516,12.16566 z" /><path
             id="path8484"
             d="m 450.53771,122.95476 a 61.074713,61.074713 0 0 1 8.57416,31.06792 61.074713,61.074713 0 0 1 -61.07328,61.07321 61.074713,61.074713 0 0 1 -31.20017,-8.64856 59.531233,59.531233 0 0 0 46.67001,22.5764 59.531233,59.531233 0 0 0 59.53128,-59.5312 59.531233,59.531233 0 0 0 -22.502,-46.53777 z"
             style="fill:#00163d;fill-opacity:0.18;stroke:none;stroke-width:3.81;stroke-linecap:square;stroke-linejoin:miter;stroke-miterlimit:4;stroke-dasharray:none;stroke-dashoffset:0;stroke-opacity:1;paint-order:normal" /><path
             id="path8486"
             style="fill:#2a353f;fill-opacity:1;stroke:none;stroke-width:2.11667;stroke-linecap:butt;stroke-linejoin:miter;stroke-dasharray:none;stroke-opacity:1"
             d="m 413.50861,146.76107 c -30.73231,0 -48.56473,2.72691 -57.37479,6.85384 -5.86621,16.64802 -0.9406,29.72749 4.87257,43.94047 13.21726,-3.19513 40.17452,-4.93872 52.50222,-4.93872 12.3277,0 39.28445,1.74359 52.5017,4.93872 5.81317,-14.21298 10.7393,-27.29245 4.87309,-43.94047 -8.81006,-4.12693 -26.64248,-6.85384 -57.37479,-6.85384 z" /><path
             id="path8488"
             style="fill:url(#linearGradient8510);fill-opacity:1;stroke:none;stroke-width:2.11667;stroke-linecap:butt;stroke-linejoin:miter;stroke-dasharray:none;stroke-opacity:1"
             d="m 469.64679,153.07334 -19.3611,20.12901 -29.34394,-13.08706 -17.89297,12.57598 -26.89034,-6.54379 -20.03961,18.27175 c 1.34101,4.36366 3.07094,8.6946 4.88756,13.13615 13.21725,-3.19512 40.17453,-4.93871 52.50222,-4.93871 12.32769,0 39.28447,1.74359 52.5017,4.93871 5.81317,-14.21296 10.7393,-27.29246 4.87309,-43.94047 -0.39201,-0.18363 -0.80853,-0.3636 -1.23661,-0.54157 z" /><path
             style="fill:none;stroke:#a7dbff;stroke-width:4.233;stroke-linecap:butt;stroke-linejoin:round;stroke-dasharray:none;stroke-opacity:1"
             d="m 356.11882,184.4193 20.03962,-18.27158 26.89037,6.54366 17.89282,-12.57611 29.34425,13.08733 19.29873,-20.15867"
             id="path8490" /><path
             id="path8492"
             style="fill:#5a5e6c;fill-opacity:1;stroke:none;stroke-width:4.23333;stroke-linecap:round;stroke-linejoin:bevel;stroke-miterlimit:6;stroke-dasharray:none;stroke-opacity:1;paint-order:normal;stop-color:#000000"
             d="m 413.50861,109.96125 a 59.531235,59.531235 0 0 0 -36.02157,12.1791 48.633137,18.14325 0 0 0 36.02157,5.96398 48.633137,18.14325 0 0 0 36.05516,-5.97742 59.531235,59.531235 0 0 0 -36.05516,-12.16566 z" /><g
             id="g8504"><path
               id="path8494"
               style="fill:none;stroke:#000000;stroke-width:4.23333;stroke-linecap:butt;stroke-linejoin:miter;stroke-dasharray:none;stroke-opacity:1"
               d="m 413.50861,146.76107 c -30.73231,0 -48.56473,2.72691 -57.37479,6.85384 -5.86621,16.64802 -0.9406,29.72749 4.87257,43.94047 13.21726,-3.19513 40.17452,-4.93872 52.50222,-4.93872 12.3277,0 39.28445,1.74359 52.5017,4.93872 5.81317,-14.21298 10.7393,-27.29245 4.87309,-43.94047 -8.81006,-4.12693 -26.64248,-6.85384 -57.37479,-6.85384 z" /><circle
               style="fill:none;fill-opacity:1;stroke:#000000;stroke-width:4.23333;stroke-linecap:square;stroke-linejoin:miter;stroke-miterlimit:4;stroke-dasharray:none;stroke-dashoffset:0;stroke-opacity:1;paint-order:normal"
               id="circle8496"
               cx="413.50839"
               cy="-169.49251"
               r="59.531235"
               transform="scale(1,-1)" /><path
               id="path8500"
               style="fill:none;fill-opacity:1;stroke:#000000;stroke-width:4.23333;stroke-linecap:round;stroke-linejoin:bevel;stroke-miterlimit:6;stroke-dasharray:none;stroke-opacity:1;paint-order:normal;stop-color:#000000"
               d="m 413.50839,229.02374 a 59.531235,59.531235 0 0 1 -36.02157,-12.1791 48.633137,18.14325 0 0 1 36.02157,-5.96398 48.633137,18.14325 0 0 1 36.05516,5.97742 59.531235,59.531235 0 0 1 -36.05516,12.16566 z" /><path
               id="path8502"
               style="fill:none;fill-opacity:1;stroke:#000000;stroke-width:4.23333;stroke-linecap:round;stroke-linejoin:bevel;stroke-miterlimit:6;stroke-dasharray:none;stroke-opacity:1;paint-order:normal;stop-color:#000000"
               d="m 413.50861,109.96125 a 59.531235,59.531235 0 0 0 -36.02157,12.1791 48.633137,18.14325 0 0 0 36.02157,5.96398 48.633137,18.14325 0 0 0 36.05516,-5.97742 59.531235,59.531235 0 0 0 -36.05516,-12.16566 z" /></g></g></g></g><g
       id="g644"
       transform="translate(-446.97608,443.13594)"><path
         id="path1710"
         d="m 664.85056,449.20858 c 15.12345,0 39.33907,7.14235 39.86374,20.722 0.28412,7.3419 -8.19269,12.87229 -19.50251,12.87229 h -30.64637 c -8.92182,0 -20.22915,-0.68598 -19.41672,-14.68764 0.66672,-11.50079 11.56858,-18.90665 29.70186,-18.90665 z"
         style="font-variation-settings:normal;display:inline;fill:#666a7a;fill-opacity:1;stroke:none;stroke-width:5.39105;stroke-linecap:round;stroke-linejoin:miter;stroke-miterlimit:4;stroke-dasharray:none;stroke-dashoffset:0;stroke-opacity:1;paint-order:normal;stop-color:#000000" /><path
         id="path1714"
         style="fill:#404352;fill-opacity:1;stroke:#000000;stroke-width:2.11667;stroke-linecap:butt;stroke-linejoin:miter;stroke-dasharray:none;stroke-opacity:1"
         d="m 702.27484,463.17002 -3.78891,3.7889 a 27.899634,27.899634 157.50001 0 1 -19.72801,8.17161 H 636.0427 c 2.80967,7.23738 11.42177,7.6724 18.5229,7.6724 h 30.64619 c 3.2934,0 6.3445,-0.47103 9.01082,-1.31723 1.6e-4,-5e-5 3.6e-4,5e-5 5.2e-4,0 1.6e-4,-5e-5 3.6e-4,5e-5 5.2e-4,0 0.27021,-0.0858 0.5368,-0.1753 0.79891,-0.26872 0.12404,-0.0442 0.2468,-0.0895 0.36897,-0.13539 0.007,-0.003 0.0141,-0.005 0.0212,-0.008 0.0103,-0.004 0.0202,-0.008 0.0305,-0.0119 0.24757,-0.0937 0.49156,-0.19047 0.73122,-0.29093 0.12494,-0.0524 0.24882,-0.1055 0.37156,-0.15968 0.21974,-0.097 0.43551,-0.19701 0.64802,-0.29973 0.0416,-0.0201 0.0832,-0.0401 0.12454,-0.0605 0.0999,-0.0491 0.19942,-0.0984 0.29765,-0.14883 9e-4,-4.6e-4 0.002,-10e-4 0.003,-0.002 0.1158,-0.0594 0.23071,-0.11978 0.34416,-0.18086 0.0778,-0.0419 0.15437,-0.0844 0.231,-0.12713 0.0766,-0.0426 0.15241,-0.0857 0.22789,-0.12919 0.0693,-0.0399 0.13894,-0.0794 0.20722,-0.11989 0.004,-0.003 0.009,-0.005 0.0129,-0.008 0.1192,-0.0708 0.23673,-0.14319 0.35295,-0.21601 0.0636,-0.0399 0.12649,-0.08 0.18914,-0.1204 0.0903,-0.0583 0.17925,-0.11729 0.26768,-0.17674 0.0627,-0.0422 0.12535,-0.0844 0.18707,-0.12712 0.10728,-0.0743 0.21296,-0.14977 0.31729,-0.22583 0.049,-0.0358 0.0979,-0.0713 0.14625,-0.10748 0.11705,-0.0874 0.23308,-0.17594 0.34623,-0.26562 6.8e-4,-5.4e-4 0.001,-10e-4 0.002,-0.002 0.038,-0.0301 0.0746,-0.0611 0.11214,-0.0915 0.0973,-0.0787 0.19304,-0.15787 0.28732,-0.23823 0.0312,-0.0266 0.0626,-0.0533 0.0935,-0.0801 0.11856,-0.10284 0.23474,-0.20718 0.3483,-0.31264 0.0249,-0.0231 0.0492,-0.0465 0.0739,-0.0698 0.10636,-0.10027 0.21084,-0.20132 0.31264,-0.30386 0.0135,-0.0136 0.0274,-0.0272 0.0408,-0.0408 0.11315,-0.11501 0.22289,-0.23156 0.33022,-0.34934 0.0191,-0.0209 0.0379,-0.042 0.0568,-0.063 0.10725,-0.11934 0.21249,-0.23966 0.31368,-0.36174 2.4e-4,-2.9e-4 2.7e-4,-7.4e-4 5.1e-4,-0.001 0.10614,-0.12808 0.20814,-0.25811 0.30748,-0.38912 0.009,-0.0119 0.0179,-0.0238 0.0269,-0.0357 0.0995,-0.13229 0.19592,-0.26583 0.28835,-0.40101 0.0963,-0.1408 0.1885,-0.283 0.27699,-0.42685 0.96857,-1.57452 1.46667,-3.32824 1.39423,-5.2002 -0.0953,-2.4679 -0.97614,-4.72185 -2.43964,-6.76031 z" /><path
         id="path2454"
         style="fill:#2a353f;fill-opacity:1;stroke:#000000;stroke-width:2.11667;stroke-linecap:butt;stroke-linejoin:miter;stroke-dasharray:none;stroke-opacity:1"
         d="m 664.85076,449.2086 c -18.13326,0 -29.03534,7.40608 -29.70206,18.90686 -7e-5,0.001 7e-5,0.002 0,0.004 h 16.00729 a 40.7862,40.7862 0 0 0 32.41663,-16.05276 c -6.38436,-1.89271 -13.16626,-2.85771 -18.72186,-2.85771 z" /><path
         id="path1716"
         d="m 664.85056,449.20858 c 15.12345,0 39.33907,7.14235 39.86374,20.722 0.28412,7.3419 -8.19269,12.87229 -19.50251,12.87229 h -30.64637 c -8.92182,0 -20.22915,-0.68598 -19.41672,-14.68764 0.66672,-11.50079 11.56858,-18.90665 29.70186,-18.90665 z"
         style="font-variation-settings:normal;display:inline;fill:none;fill-opacity:1;stroke:#000000;stroke-width:4.23333;stroke-linecap:round;stroke-linejoin:miter;stroke-miterlimit:4;stroke-dasharray:none;stroke-dashoffset:0;stroke-opacity:1;paint-order:normal;stop-color:#000000" /></g></g></svg>
