<?xml version="1.0" encoding="UTF-8" standalone="no"?>
<!-- Created with Inkscape (http://www.inkscape.org/) -->

<svg
   width="425.52905mm"
   height="105.29823mm"
   viewBox="0 0 425.52905 105.29823"
   version="1.1"
   id="svg5"
   xml:space="preserve"
   xmlns="http://www.w3.org/2000/svg"
   xmlns:svg="http://www.w3.org/2000/svg"><defs
     id="defs2" /><g
     id="layer5"
     transform="translate(-192.98926,-1164.8794)"><g
       id="g1618"
       transform="matrix(1.0899416,0,0,1.1095606,365.9183,559.90114)"
       style="stroke-width:0.909333"><path
         id="path1604"
         style="font-style:italic;font-weight:900;font-size:103.302px;line-height:1.25;font-family:Lato;-inkscape-font-specification:'Lato Heavy Italic';letter-spacing:0px;word-spacing:0px;fill:#000000;fill-opacity:1;stroke:#000000;stroke-width:18.0957;stroke-dasharray:none;stroke-opacity:1"
         d="m 28.479847,554.28918 c -4.166504,0 -7.919687,0.70592 -11.259777,2.1177 -3.340092,1.4118 -6.180971,3.30537 -8.5224794,5.68131 -2.3415074,2.37595 -4.1493861,5.11388 -5.4234416,8.21294 -1.2396216,3.06461 -1.8593181,6.26655 -1.8593181,9.60665 0,2.89244 0.3788182,5.33726 1.1363648,7.33443 0.7919805,1.96274 1.8077378,3.63319 3.0473592,5.01055 1.2740556,1.34292 2.7203584,2.44489 4.3387538,3.30574 1.6183963,0.82641 3.2710913,1.54905 4.9583553,2.16886 1.687262,0.61981 3.339959,1.20554 4.958353,1.75648 1.618396,0.51651 3.047455,1.11896 4.287077,1.80764 1.274056,0.68868 2.289813,1.53254 3.047359,2.53111 0.791982,0.99859 1.188042,2.27248 1.188042,3.82199 0,3.3401 -0.860574,5.87112 -2.582272,7.59282 -1.687262,1.68727 -4.098112,2.5306 -7.2316,2.5306 -2.134904,0 -3.942266,-0.32709 -5.422924,-0.98134 -1.446227,-0.68868 -2.720621,-1.42907 -3.822508,-2.22105 -1.1018859,-0.82642 -2.117643,-1.5663 -3.0473592,-2.22054 -0.8952822,-0.68868 -1.8248269,-1.03301 -2.7889771,-1.03301 -0.7231125,0 -1.4462641,0.18915 -2.1693767,0.56792 -0.68867873,0.37878 -1.27389005,0.86105 -1.75596522,1.44643 l -5.99188218,7.85068 c 1.2051876,1.48066 2.6687331,2.82351 4.3904297,4.0287 1.72169658,1.20518 3.5813027,2.25542 5.5784709,3.15071 2.0316018,0.86084 4.1320864,1.53227 6.3014245,2.01435 2.2037733,0.48206 4.3904713,0.72347 6.5598073,0.72347 4.37311,0 8.298198,-0.72316 11.776026,-2.16938 3.51226,-1.48067 6.491079,-3.46096 8.935889,-5.94021 2.444808,-2.51366 4.32114,-5.44024 5.62963,-8.78034 1.30849,-3.3401 1.963188,-6.90413 1.963188,-10.69185 0,-2.65141 -0.396061,-4.92432 -1.188041,-6.81819 -0.757548,-1.89387 -1.790546,-3.51208 -3.099036,-4.855 -1.274056,-1.34293 -2.7376,-2.46214 -4.39043,-3.35742 -1.618394,-0.89528 -3.288334,-1.68689 -5.01003,-2.37557 -1.687262,-0.68868 -3.340476,-1.32613 -4.95887,-1.91151 -1.618396,-0.58538 -3.081425,-1.22231 -4.389913,-1.91099 -1.274056,-0.72311 -2.307571,-1.5492 -3.099553,-2.47892 -0.757546,-0.92971 -1.135848,-2.08341 -1.135848,-3.46077 0,-1.27406 0.189152,-2.445 0.567924,-3.51245 0.413208,-1.06745 1.015662,-1.997 1.807642,-2.78898 0.79198,-0.79197 1.773769,-1.41167 2.944523,-1.85931 1.205188,-0.44764 2.599764,-0.6718 4.183724,-0.6718 1.721696,0 3.21921,0.25864 4.493266,0.77515 1.274056,0.51651 2.393268,1.08448 3.357418,1.70429 0.998584,0.61981 1.893644,1.18777 2.685624,1.70429 0.79198,0.5165 1.584102,0.77514 2.376082,0.77514 0.826414,0 1.532324,-0.18966 2.1177,-0.56844 0.585378,-0.4132 1.187832,-1.01566 1.807642,-1.80764 l 5.062223,-6.92154 c -0.998584,-1.27405 -2.221252,-2.44447 -3.667476,-3.51193 -1.446226,-1.10189 -3.047193,-2.04919 -4.803325,-2.84117 -1.75613,-0.79198 -3.650221,-1.41167 -5.681823,-1.85932 -1.997168,-0.44764 -4.063168,-0.67128 -6.198072,-0.67128 z m -167.607327,0.72296 -9.2971,75.25535 h 27.06501 c 3.95991,0 7.73033,-0.48176 11.31145,-1.4459 3.61557,-0.96415 6.93872,-2.34148 9.96889,-4.13205 3.064621,-1.79057 5.819285,-3.94278 8.264095,-6.45646 2.479242,-2.5481 4.579726,-5.38899 6.301424,-8.52247 1.721696,-3.16793 3.047302,-6.57677 3.977018,-10.22677 0.929716,-3.68442 1.394747,-7.57555 1.394747,-11.67319 0,-4.68301 -0.740395,-9.02192 -2.221053,-13.01626 -1.48066,-3.99433 -3.598387,-7.45492 -6.353101,-10.38179 -2.754714,-2.92689 -6.111834,-5.21652 -10.071732,-6.86935 -3.925458,-1.68727 -8.350578,-2.53111 -13.274628,-2.53111 z m 73.240994,0 -9.297107,75.25535 h 27.065015 c 3.959902,0 7.730325,-0.48176 11.311454,-1.4459 3.615564,-0.96415 6.938715,-2.34148 9.968901,-4.13205 3.06462,-1.79057 5.819285,-3.94278 8.264095,-6.45646 2.479244,-2.5481 4.579728,-5.38899 6.301424,-8.52247 1.721695,-3.16793 3.0473008,-6.57677 3.9770162,-10.22677 0.929717,-3.68442 1.3947473,-7.57555 1.3947473,-11.67319 0,-4.68301 -0.7403937,-9.02192 -2.2210527,-13.01626 -1.4806578,-3.99433 -3.5983848,-7.45492 -6.3530988,-10.38179 -2.754716,-2.92689 -6.111835,-5.21652 -10.071737,-6.86935 -3.925468,-1.68727 -8.350589,-2.53111 -13.274642,-2.53111 z m 132.071525,6.14639 c -1.75613,0 -2.926552,0.82661 -3.51193,2.47944 l -4.493782,13.06742 -8.109066,1.65313 -0.72347,6.24974 c -0.17217,1.03302 -0.01699,1.82515 0.465088,2.37609 0.482074,0.51651 1.084529,0.77463 1.807641,0.77463 h 4.287077 l -2.737301,21.89995 c -0.206602,1.7217 -0.379028,3.11627 -0.516764,4.18373 -0.103302,1.033 -0.189514,1.87686 -0.258382,2.53111 -0.03443,0.61981 -0.05168,1.10156 -0.05168,1.4459 v 0.87799 c 0.06887,1.92828 0.430444,3.65047 1.084688,5.16557 0.688678,1.51509 1.61874,2.82346 2.789494,3.92534 1.205186,1.06746 2.634247,1.89355 4.287077,2.47892 1.652828,0.55095 3.511918,0.82683 5.577954,0.82683 2.479242,0 4.941304,-0.37882 7.386112,-1.13637 2.44481,-0.79199 4.734961,-1.96292 6.869865,-3.51245 l -3.512447,-7.59281 c -0.241038,-0.48208 -0.481917,-0.82641 -0.722953,-1.03302 -0.206604,-0.24104 -0.550938,-0.36121 -1.033012,-0.36121 -0.309906,0 -0.58527,0.0684 -0.826306,0.20618 -0.241038,0.1033 -0.499675,0.24124 -0.775147,0.41342 -0.275472,0.13773 -0.602563,0.27567 -0.981335,0.41341 -0.34434,0.1033 -0.791612,0.15503 -1.342554,0.15503 -0.998584,0 -1.738979,-0.32761 -2.221053,-0.98186 -0.447642,-0.68868 -0.671794,-1.53201 -0.671794,-2.53059 v -0.25838 c 0,-0.17217 0.01724,-0.46478 0.05168,-0.87799 0.06887,-0.44764 0.15508,-1.06733 0.258382,-1.85931 0.103302,-0.82642 0.241241,-1.94563 0.413411,-3.35742 l 2.582272,-21.02197 h 11.983248 l 1.342553,-10.95024 h -11.98273 l 1.962671,-15.65021 z m 92.558711,0 c -1.75614,0 -2.92707,0.82661 -3.51245,2.47944 l -4.49327,13.06742 -8.10958,1.65313 -0.72295,6.24974 c -0.17218,1.03302 -0.017,1.82515 0.46509,2.37609 0.48206,0.51651 1.08452,0.77463 1.80764,0.77463 h 4.28707 l -2.73781,21.89995 c -0.20661,1.7217 -0.37852,3.11627 -0.51625,4.18373 -0.1033,1.033 -0.18951,1.87686 -0.25838,2.53111 -0.0344,0.61981 -0.0517,1.10156 -0.0517,1.4459 v 0.87799 c 0.0689,1.92828 0.43045,3.65047 1.08469,5.16557 0.68868,1.51509 1.61873,2.82346 2.78949,3.92534 1.20519,1.06746 2.63373,1.89355 4.28656,2.47892 1.65283,0.55095 3.51245,0.82683 5.57847,0.82683 2.47925,0 4.9413,-0.37882 7.38612,-1.13637 2.4448,-0.79199 4.73495,-1.96292 6.86986,-3.51245 l -3.51245,-7.59281 c -0.24104,-0.48208 -0.48191,-0.82641 -0.72295,-1.03302 -0.2066,-0.24104 -0.55093,-0.36121 -1.03301,-0.36121 -0.30991,0 -0.5858,0.0684 -0.82682,0.20618 -0.24104,0.1033 -0.49916,0.24124 -0.77463,0.41342 -0.27548,0.13773 -0.60257,0.27567 -0.98134,0.41341 -0.34434,0.1033 -0.79213,0.15503 -1.34307,0.15503 -0.99859,0 -1.73897,-0.32761 -2.22105,-0.98186 -0.44764,-0.68868 -0.67128,-1.53201 -0.67128,-2.53059 v -0.25838 c 0,-0.17217 0.0173,-0.46478 0.0517,-0.87799 0.0689,-0.44764 0.15507,-1.06733 0.25838,-1.85931 0.1033,-0.82642 0.24072,-1.94563 0.41289,-3.35742 l 2.58279,-21.02197 h 11.98273 l 1.34307,-10.95024 h -11.98273 l 1.96267,-15.65021 z m -282.58276,6.81819 h 10.12393 c 2.61699,0 4.9411,0.48176 6.97271,1.44591 2.03159,0.96415 3.73602,2.32475 5.11338,4.08089 1.41179,1.75612 2.462021,3.89057 3.150695,6.40426 0.723112,2.47923 1.084689,5.25167 1.084689,8.31628 0,4.47642 -0.516243,8.50496 -1.549256,12.08609 -1.033014,3.58112 -2.513788,6.6284 -4.442098,9.14208 -1.92828,2.51366 -4.26967,4.45949 -7.02437,5.83685 -2.75472,1.34292 -5.85423,2.01435 -9.29763,2.01435 h -10.12341 z m 73.241514,0 h 10.123413 c 2.616979,0 4.941099,0.48176 6.972701,1.44591 2.031602,0.96415 3.736025,2.32475 5.113383,4.08089 1.41179,1.75612 2.462034,3.89057 3.150712,6.40426 0.723112,2.47923 1.084688,5.25167 1.084688,8.31628 0,4.47642 -0.516241,8.50496 -1.549259,12.08609 -1.033018,3.58112 -2.513806,6.6284 -4.442106,9.14208 -1.9283,2.51366 -4.269664,4.45949 -7.024378,5.83685 -2.754715,1.34292 -5.853713,2.01435 -9.297107,2.01435 h -10.12393 z m 171.636046,7.90236 c -5.23395,0 -10.03738,0.96455 -14.41049,2.89285 -4.3731,1.9283 -8.161303,4.52778 -11.363659,7.799 -3.16792,3.27123 -5.646706,7.09337 -7.437272,11.46649 -1.75613,4.33866 -2.634464,8.93569 -2.634464,13.79089 0,3.30564 0.413303,6.18102 1.239717,8.62583 0.826416,2.41038 1.928384,4.4074 3.305742,5.99136 1.377356,1.54953 2.961084,2.72046 4.751648,3.51245 1.790564,0.75755 3.650171,1.13637 5.578478,1.13637 3.2368,0 6.19786,-0.86109 8.8837,-2.58279 2.72029,-1.75613 5.1651,-4.14922 7.33444,-7.17941 v 3.87367 c 0,0.72312 0.069,1.39454 0.2067,2.01434 0.17217,0.61982 0.44754,1.15382 0.82631,1.60146 0.41321,0.44764 0.94721,0.80921 1.60145,1.08468 0.68868,0.24104 1.53201,0.36122 2.5306,0.36122 h 8.57415 l 6.50813,-52.01233 c -2.54812,-0.89528 -5.13086,-1.51499 -7.74785,-1.85931 -2.61696,-0.34434 -5.19921,-0.51677 -7.74733,-0.51677 z m 82.27974,0 c -3.58113,0 -6.71462,0.55124 -9.40046,1.65313 -2.68585,1.10189 -4.941,2.56542 -6.766,4.39043 -1.79056,1.79056 -3.15065,3.85656 -4.08037,6.19807 -0.89528,2.34151 -1.34307,4.75184 -1.34307,7.23108 0,1.99717 0.27537,3.7016 0.82631,5.11339 0.58538,1.4118 1.34301,2.59946 2.27273,3.5636 0.9297,0.96416 1.97995,1.77352 3.15071,2.42776 1.17075,0.61982 2.37617,1.17106 3.6158,1.65313 1.23962,0.48208 2.44452,0.92935 3.61528,1.34256 1.17075,0.37877 2.22099,0.82655 3.15071,1.34307 0.92972,0.48207 1.67012,1.06728 2.22106,1.75596 0.58536,0.68868 0.87798,1.56701 0.87798,2.63447 0,1.37734 -0.55074,2.58226 -1.65261,3.61528 -1.1019,0.99858 -2.78907,1.4981 -5.06171,1.4981 -1.6184,0 -2.92727,-0.2064 -3.92586,-0.6196 -0.99859,-0.41321 -1.85916,-0.86099 -2.58227,-1.34307 l -2.01435,-1.34307 c -0.61981,-0.41322 -1.36021,-0.6196 -2.22105,-0.6196 -0.92972,0 -1.72184,0.20638 -2.37608,0.6196 -0.61981,0.37877 -1.17054,0.91277 -1.65262,1.60145 l -3.92585,5.88801 c 0.75753,0.92972 1.73933,1.80754 2.94452,2.63395 1.20519,0.79198 2.53079,1.48064 3.97702,2.06602 1.48066,0.58538 3.04714,1.05041 4.69997,1.39475 1.65283,0.34434 3.32328,0.51677 5.01055,0.51677 3.54668,0 6.73138,-0.51676 9.55497,-1.54978 2.85801,-1.06745 5.28612,-2.47927 7.28327,-4.2354 1.99718,-1.79057 3.52917,-3.87381 4.59662,-6.24975 1.06746,-2.41038 1.60146,-4.95865 1.60146,-7.64449 0,-1.89388 -0.29313,-3.52932 -0.8785,-4.90668 -0.55095,-1.37736 -1.29082,-2.56555 -2.22054,-3.56412 -0.92971,-0.99859 -1.9972,-1.84192 -3.20239,-2.5306 -1.17075,-0.68868 -2.37617,-1.29113 -3.6158,-1.80764 -1.23962,-0.55095 -2.46177,-1.03322 -3.66696,-1.44642 -1.17075,-0.44764 -2.22099,-0.92991 -3.15071,-1.44643 -0.92972,-0.5165 -1.68736,-1.10172 -2.27273,-1.75596 -0.55095,-0.65425 -0.82631,-1.44637 -0.82631,-2.37609 0,-1.44621 0.499,-2.61664 1.49759,-3.51193 1.03302,-0.9297 2.73744,-1.39474 5.11338,-1.39474 1.27406,0 2.39327,0.15518 3.35742,0.46509 0.99858,0.3099 1.87692,0.67148 2.63446,1.08468 0.79199,0.37878 1.51462,0.72311 2.16886,1.03302 0.68868,0.3099 1.37786,0.46457 2.06654,0.46457 0.68868,0 1.23942,-0.13794 1.65261,-0.41341 0.41321,-0.27548 0.861,-0.72275 1.34308,-1.34256 l 4.13204,-5.68182 c -1.825,-1.79057 -4.14964,-3.30533 -6.97321,-4.54494 -2.78916,-1.23962 -5.97437,-1.85984 -9.55549,-1.85984 z m -84.55247,11.00191 h 0.98134 l -1.91099,14.8239 c -0.58538,2.30708 -1.2913,4.47602 -2.1177,6.50762 -0.82642,2.0316 -1.73872,3.80499 -2.73731,5.32009 -0.96414,1.51508 -1.99715,2.72051 -3.09903,3.6158 -1.10189,0.86084 -2.23834,1.29139 -3.4091,1.29139 -0.75753,0 -1.46345,-0.17242 -2.1177,-0.51676 -0.6198,-0.34434 -1.17106,-0.87783 -1.65312,-1.60094 -0.44764,-0.75755 -0.80922,-1.73882 -1.0847,-2.94401 -0.27547,-1.20518 -0.41289,-2.66873 -0.41289,-4.39043 0,-3.03018 0.4133,-5.87107 1.23972,-8.52247 0.86085,-2.68585 2.06576,-5.02721 3.61528,-7.02438 1.54953,-2.03161 3.39189,-3.63309 5.5268,-4.80384 2.16934,-1.17076 4.56243,-1.75597 7.1794,-1.75597 z" /><path
         id="path1606"
         style="font-style:italic;font-weight:900;font-size:103.302px;line-height:1.25;font-family:Lato;-inkscape-font-specification:'Lato Heavy Italic';letter-spacing:0px;word-spacing:0px;fill:#000000;fill-opacity:1;stroke:#000000;stroke-width:9.09333;stroke-dasharray:none;stroke-opacity:1"
         d="m 26.488822,551.11416 c -4.166504,0 -7.919687,0.70592 -11.259777,2.1177 -3.340092,1.4118 -6.18097,3.30537 -8.5224776,5.68131 -2.3415074,2.37595 -4.1493861,5.11388 -5.4234416,8.21294 -1.23962149,3.06461 -1.85931802,6.26655 -1.85931802,9.60665 0,2.89244 0.37881824,5.33726 1.13636475,7.33443 0.79198047,1.96274 1.80773777,3.63319 3.04735917,5.01055 1.2740556,1.34292 2.7203584,2.44489 4.3387533,3.30574 1.6183951,0.82641 3.27109,1.54905 4.958354,2.16886 1.687262,0.61981 3.339959,1.20554 4.958353,1.75648 1.618396,0.51651 3.047455,1.11896 4.287077,1.80764 1.274056,0.68868 2.289813,1.53254 3.047359,2.53111 0.791982,0.99859 1.188042,2.27248 1.188042,3.82199 0,3.3401 -0.860574,5.87112 -2.582272,7.59282 -1.687262,1.68727 -4.098112,2.5306 -7.2316,2.5306 -2.134904,0 -3.942266,-0.32709 -5.422924,-0.98134 -1.4462265,-0.68868 -2.7206204,-1.42907 -3.8225062,-2.22105 -1.1018859,-0.82642 -2.117643,-1.5663 -3.0473592,-2.22054 -0.8952822,-0.68868 -1.8248269,-1.03301 -2.7889771,-1.03301 -0.72311251,0 -1.44626402,0.18915 -2.16937658,0.56792 -0.68867862,0.37878 -1.27389002,0.86105 -1.75596522,1.44643 l -5.9918823,7.85068 c 1.2051876,1.48066 2.6687331,2.82351 4.3904297,4.0287 1.7216967,1.20518 3.58130278,2.25542 5.5784709,3.15071 2.0316018,0.86084 4.1320864,1.53227 6.3014241,2.01435 2.2037719,0.48206 4.3904699,0.72347 6.5598059,0.72347 4.37311,0 8.298198,-0.72316 11.776026,-2.16938 3.51226,-1.48067 6.491079,-3.46096 8.935889,-5.94021 2.444808,-2.51366 4.32114,-5.44024 5.62963,-8.78034 1.30849,-3.3401 1.963188,-6.90413 1.963188,-10.69185 0,-2.65141 -0.396061,-4.92432 -1.188041,-6.81819 -0.757548,-1.89387 -1.790546,-3.51208 -3.099036,-4.855 -1.274056,-1.34293 -2.7376,-2.46214 -4.39043,-3.35742 -1.618394,-0.89528 -3.288334,-1.68689 -5.01003,-2.37557 -1.687262,-0.68868 -3.340476,-1.32613 -4.95887,-1.91151 -1.618396,-0.58538 -3.081425,-1.22231 -4.389913,-1.91099 -1.274056,-0.72311 -2.307571,-1.5492 -3.099553,-2.47892 -0.757546,-0.92971 -1.135848,-2.08341 -1.135848,-3.46077 0,-1.27406 0.189152,-2.445 0.567924,-3.51245 0.413208,-1.06745 1.015662,-1.997 1.807642,-2.78898 0.79198,-0.79197 1.773769,-1.41167 2.944523,-1.85931 1.205188,-0.44764 2.599764,-0.6718 4.183724,-0.6718 1.721696,0 3.21921,0.25864 4.493266,0.77515 1.274056,0.51651 2.393268,1.08448 3.357418,1.70429 0.998584,0.61981 1.893644,1.18777 2.685624,1.70429 0.79198,0.5165 1.584102,0.77514 2.376082,0.77514 0.826414,0 1.532324,-0.18966 2.1177,-0.56844 0.585378,-0.4132 1.187832,-1.01566 1.807642,-1.80764 l 5.062223,-6.92154 c -0.998584,-1.27405 -2.221252,-2.44447 -3.667476,-3.51193 -1.446226,-1.10189 -3.047193,-2.04919 -4.803325,-2.84117 -1.75613,-0.79198 -3.650221,-1.41167 -5.681823,-1.85932 -1.997168,-0.44764 -4.063168,-0.67128 -6.198072,-0.67128 z m -167.607342,0.72296 -9.2971,75.25535 h 27.06501 c 3.95991,0 7.73033,-0.48176 11.31145,-1.4459 3.61557,-0.96415 6.93872,-2.34148 9.9689,-4.13205 3.064626,-1.79057 5.81929,-3.94278 8.2641,-6.45646 2.479242,-2.5481 4.579726,-5.38899 6.301424,-8.52247 1.721696,-3.16793 3.047302,-6.57677 3.977018,-10.22677 0.929716,-3.68442 1.394747,-7.57555 1.394747,-11.67319 0,-4.68301 -0.740395,-9.02192 -2.221053,-13.01626 -1.48066,-3.99433 -3.598387,-7.45492 -6.353101,-10.38179 -2.754714,-2.92689 -6.111834,-5.21652 -10.071735,-6.86935 -3.92547,-1.68727 -8.35059,-2.53111 -13.27464,-2.53111 z m 73.241009,0 -9.297107,75.25535 h 27.065015 c 3.959902,0 7.730325,-0.48176 11.311454,-1.4459 3.615564,-0.96415 6.938715,-2.34148 9.968901,-4.13205 3.06462,-1.79057 5.819285,-3.94278 8.264095,-6.45646 2.479244,-2.5481 4.579728,-5.38899 6.301424,-8.52247 1.721696,-3.16793 3.047302,-6.57677 3.977018,-10.22677 0.929717,-3.68442 1.3947473,-7.57555 1.3947473,-11.67319 0,-4.68301 -0.7403937,-9.02192 -2.2210533,-13.01626 -1.480658,-3.99433 -3.598386,-7.45492 -6.3531,-10.38179 -2.754716,-2.92689 -6.111835,-5.21652 -10.071737,-6.86935 -3.925468,-1.68727 -8.350589,-2.53111 -13.274642,-2.53111 z m 132.071525,6.14639 c -1.75613,0 -2.926552,0.82661 -3.51193,2.47944 l -4.493782,13.06742 -8.109066,1.65313 -0.72347,6.24974 c -0.17217,1.03302 -0.01699,1.82515 0.465088,2.37609 0.482074,0.51651 1.084529,0.77463 1.807641,0.77463 h 4.287077 l -2.737301,21.89995 c -0.206602,1.7217 -0.379028,3.11627 -0.516764,4.18373 -0.103302,1.033 -0.189514,1.87686 -0.258382,2.53111 -0.03443,0.61981 -0.05168,1.10156 -0.05168,1.4459 v 0.87799 c 0.06887,1.92828 0.430444,3.65047 1.084688,5.16557 0.688678,1.51509 1.61874,2.82346 2.789494,3.92534 1.205186,1.06746 2.634247,1.89355 4.287077,2.47892 1.652828,0.55095 3.511918,0.82683 5.577954,0.82683 2.479242,0 4.941304,-0.37882 7.386112,-1.13637 2.44481,-0.79199 4.734961,-1.96292 6.869865,-3.51245 l -3.512447,-7.59281 c -0.241038,-0.48208 -0.481917,-0.82641 -0.722953,-1.03302 -0.206604,-0.24104 -0.550938,-0.36121 -1.033012,-0.36121 -0.309906,0 -0.58527,0.0684 -0.826306,0.20618 -0.241038,0.1033 -0.499675,0.24124 -0.775147,0.41342 -0.275472,0.13773 -0.602563,0.27567 -0.981335,0.41341 -0.34434,0.1033 -0.791612,0.15503 -1.342554,0.15503 -0.998584,0 -1.738979,-0.32761 -2.221053,-0.98186 -0.447642,-0.68868 -0.671794,-1.53201 -0.671794,-2.53059 v -0.25838 c 0,-0.17217 0.01724,-0.46478 0.05168,-0.87799 0.06887,-0.44764 0.15508,-1.06733 0.258382,-1.85931 0.103302,-0.82642 0.241241,-1.94563 0.413411,-3.35742 l 2.582272,-21.02197 H 81.549027 L 82.89158,573.63372 H 70.90885 l 1.962671,-15.65021 z m 92.558696,0 c -1.75614,0 -2.92707,0.82661 -3.51245,2.47944 l -4.49327,13.06742 -8.10958,1.65313 -0.72295,6.24974 c -0.17218,1.03302 -0.017,1.82515 0.46509,2.37609 0.48206,0.51651 1.08452,0.77463 1.80764,0.77463 h 4.28707 l -2.73781,21.89995 c -0.20661,1.7217 -0.37852,3.11627 -0.51625,4.18373 -0.1033,1.033 -0.18951,1.87686 -0.25838,2.53111 -0.0344,0.61981 -0.0517,1.10156 -0.0517,1.4459 v 0.87799 c 0.0689,1.92828 0.43045,3.65047 1.08469,5.16557 0.68868,1.51509 1.61873,2.82346 2.78949,3.92534 1.20519,1.06746 2.63373,1.89355 4.28656,2.47892 1.65283,0.55095 3.51245,0.82683 5.57847,0.82683 2.47925,0 4.9413,-0.37882 7.38612,-1.13637 2.4448,-0.79199 4.73495,-1.96292 6.86986,-3.51245 l -3.51245,-7.59281 c -0.24104,-0.48208 -0.48191,-0.82641 -0.72295,-1.03302 -0.2066,-0.24104 -0.55093,-0.36121 -1.03301,-0.36121 -0.30991,0 -0.5858,0.0684 -0.82682,0.20618 -0.24104,0.1033 -0.49916,0.24124 -0.77463,0.41342 -0.27548,0.13773 -0.60257,0.27567 -0.98134,0.41341 -0.34434,0.1033 -0.79213,0.15503 -1.34307,0.15503 -0.99859,0 -1.73897,-0.32761 -2.22105,-0.98186 -0.44764,-0.68868 -0.67128,-1.53201 -0.67128,-2.53059 v -0.25838 c 0,-0.17217 0.0173,-0.46478 0.0517,-0.87799 0.0689,-0.44764 0.15507,-1.06733 0.25838,-1.85931 0.1033,-0.82642 0.24072,-1.94563 0.41289,-3.35742 l 2.58279,-21.02197 h 11.98273 l 1.34307,-10.95024 h -11.98273 l 1.96267,-15.65021 z m -282.58276,6.81819 h 10.12393 c 2.61699,0 4.9411,0.48176 6.97271,1.44591 2.03159,0.96415 3.73602,2.32475 5.11338,4.08089 1.41179,1.75612 2.46203,3.89057 3.15071,6.40426 0.723112,2.47923 1.084689,5.25167 1.084689,8.31628 0,4.47642 -0.516243,8.50496 -1.549259,12.08609 -1.03302,3.58112 -2.5138,6.6284 -4.44211,9.14208 -1.92828,2.51366 -4.26967,4.45949 -7.02437,5.83685 -2.75472,1.34292 -5.85423,2.01435 -9.29763,2.01435 h -10.12341 z m 73.241529,0 h 10.123413 c 2.616979,0 4.941099,0.48176 6.972701,1.44591 2.031602,0.96415 3.736025,2.32475 5.113383,4.08089 1.41179,1.75612 2.462034,3.89057 3.150712,6.40426 0.723112,2.47923 1.084688,5.25167 1.084688,8.31628 0,4.47642 -0.516241,8.50496 -1.549259,12.08609 -1.033018,3.58112 -2.513806,6.6284 -4.442106,9.14208 -1.9283,2.51366 -4.269664,4.45949 -7.024378,5.83685 -2.754715,1.34292 -5.853713,2.01435 -9.297107,2.01435 h -10.12393 z m 171.636031,7.90236 c -5.23395,0 -10.03738,0.96455 -14.41049,2.89285 -4.3731,1.9283 -8.161288,4.52778 -11.363644,7.799 -3.16792,3.27123 -5.646706,7.09337 -7.437272,11.46649 -1.75613,4.33866 -2.634464,8.93569 -2.634464,13.79089 0,3.30564 0.413303,6.18102 1.239717,8.62583 0.826416,2.41038 1.928384,4.4074 3.305742,5.99136 1.377356,1.54953 2.961084,2.72046 4.751648,3.51245 1.790564,0.75755 3.650171,1.13637 5.578471,1.13637 3.236792,0 6.197852,-0.86109 8.883692,-2.58279 2.72029,-1.75613 5.1651,-4.14922 7.33444,-7.17941 v 3.87367 c 0,0.72312 0.069,1.39454 0.2067,2.01434 0.17217,0.61982 0.44754,1.15382 0.82631,1.60146 0.41321,0.44764 0.94721,0.80921 1.60145,1.08468 0.68868,0.24104 1.53201,0.36122 2.5306,0.36122 h 8.57415 l 6.50813,-52.01233 c -2.54812,-0.89528 -5.13086,-1.51499 -7.74785,-1.85931 -2.61696,-0.34434 -5.19921,-0.51677 -7.74733,-0.51677 z m 82.27974,0 c -3.58113,0 -6.71462,0.55124 -9.40046,1.65313 -2.68585,1.10189 -4.941,2.56542 -6.766,4.39043 -1.79056,1.79056 -3.15065,3.85656 -4.08037,6.19807 -0.89528,2.34151 -1.34307,4.75184 -1.34307,7.23108 0,1.99717 0.27537,3.7016 0.82631,5.11339 0.58538,1.4118 1.34301,2.59946 2.27273,3.5636 0.9297,0.96416 1.97995,1.77352 3.15071,2.42776 1.17075,0.61982 2.37617,1.17106 3.6158,1.65313 1.23962,0.48208 2.44452,0.92935 3.61528,1.34256 1.17075,0.37877 2.22099,0.82655 3.15071,1.34307 0.92972,0.48207 1.67012,1.06728 2.22106,1.75596 0.58536,0.68868 0.87798,1.56701 0.87798,2.63447 0,1.37734 -0.55074,2.58226 -1.65261,3.61528 -1.1019,0.99858 -2.78907,1.4981 -5.06171,1.4981 -1.6184,0 -2.92727,-0.2064 -3.92586,-0.6196 -0.99859,-0.41321 -1.85916,-0.86099 -2.58227,-1.34307 l -2.01435,-1.34307 c -0.61981,-0.41322 -1.36021,-0.6196 -2.22105,-0.6196 -0.92972,0 -1.72184,0.20638 -2.37608,0.6196 -0.61981,0.37877 -1.17054,0.91277 -1.65262,1.60145 l -3.92585,5.88801 c 0.75753,0.92972 1.73933,1.80754 2.94452,2.63395 1.20519,0.79198 2.53079,1.48064 3.97702,2.06602 1.48066,0.58538 3.04714,1.05041 4.69997,1.39475 1.65283,0.34434 3.32328,0.51677 5.01055,0.51677 3.54668,0 6.73138,-0.51676 9.55497,-1.54978 2.85801,-1.06745 5.28612,-2.47927 7.28327,-4.2354 1.99718,-1.79057 3.52917,-3.87381 4.59662,-6.24975 1.06746,-2.41038 1.60146,-4.95865 1.60146,-7.64449 0,-1.89388 -0.29313,-3.52932 -0.8785,-4.90668 -0.55095,-1.37736 -1.29082,-2.56555 -2.22054,-3.56412 -0.92971,-0.99859 -1.9972,-1.84192 -3.20239,-2.5306 -1.17075,-0.68868 -2.37617,-1.29113 -3.6158,-1.80764 -1.23962,-0.55095 -2.46177,-1.03322 -3.66696,-1.44642 -1.17075,-0.44764 -2.22099,-0.92991 -3.15071,-1.44643 -0.92972,-0.5165 -1.68736,-1.10172 -2.27273,-1.75596 -0.55095,-0.65425 -0.82631,-1.44637 -0.82631,-2.37609 0,-1.44621 0.499,-2.61664 1.49759,-3.51193 1.03302,-0.9297 2.73744,-1.39474 5.11338,-1.39474 1.27406,0 2.39327,0.15518 3.35742,0.46509 0.99858,0.3099 1.87692,0.67148 2.63446,1.08468 0.79199,0.37878 1.51462,0.72311 2.16886,1.03302 0.68868,0.3099 1.37786,0.46457 2.06654,0.46457 0.68868,0 1.23942,-0.13794 1.65261,-0.41341 0.41321,-0.27548 0.861,-0.72275 1.34308,-1.34256 l 4.13204,-5.68182 c -1.825,-1.79057 -4.14964,-3.30533 -6.97321,-4.54494 -2.78916,-1.23962 -5.97437,-1.85984 -9.55549,-1.85984 z m -84.55247,11.00191 h 0.98134 l -1.91099,14.8239 c -0.58538,2.30708 -1.2913,4.47602 -2.1177,6.50762 -0.82642,2.0316 -1.73872,3.80499 -2.73731,5.32009 -0.96414,1.51508 -1.99715,2.72051 -3.09903,3.6158 -1.10189,0.86084 -2.23834,1.29139 -3.4091,1.29139 -0.75753,0 -1.46345,-0.17242 -2.1177,-0.51676 -0.6198,-0.34434 -1.17106,-0.87783 -1.65312,-1.60094 -0.44764,-0.75755 -0.809219,-1.73882 -1.084693,-2.94401 -0.275472,-1.20518 -0.412895,-2.66873 -0.412895,-4.39043 0,-3.03018 0.413306,-5.87107 1.239718,-8.52247 0.86085,-2.68585 2.06576,-5.02721 3.61528,-7.02438 1.54953,-2.03161 3.39189,-3.63309 5.5268,-4.80384 2.16934,-1.17076 4.56243,-1.75597 7.1794,-1.75597 z" /><path
         id="path1608"
         style="font-style:italic;font-weight:900;font-size:103.302px;line-height:1.25;font-family:Lato;-inkscape-font-specification:'Lato Heavy Italic';letter-spacing:0px;word-spacing:0px;fill:#97d1ff;fill-opacity:1;stroke-width:0.240594"
         d="m 26.488822,551.11416 c -4.166509,0 -7.919683,0.70591 -11.259777,2.1177 -3.340095,1.4118 -6.1809676,3.30537 -8.5224776,5.68131 -2.3415097,2.37595 -4.1493848,5.11388 -5.4234416,8.21294 -1.23962274,3.06462 -1.85931802,6.26655 -1.85931802,9.60665 0,2.89245 0.37881749,5.33726 1.13636475,7.33443 0.79198127,1.96274 1.80773647,3.63319 3.04735917,5.01055 1.2740568,1.34292 2.7203568,2.44489 4.3387533,3.30574 1.6183967,0.82641 3.271089,1.54905 4.958354,2.16886 1.687264,0.61981 3.339957,1.20554 4.958353,1.75648 1.618397,0.51651 3.047454,1.11896 4.287077,1.80764 1.274057,0.68868 2.289812,1.53253 3.047359,2.53111 0.791982,0.99859 1.188042,2.27247 1.188042,3.82199 0,3.3401 -0.860573,5.87112 -2.582272,7.59282 -1.687264,1.68727 -4.098109,2.5306 -7.2316,2.5306 -2.134906,0 -3.942264,-0.32709 -5.422924,-0.98134 -1.4462274,-0.68868 -2.7206193,-1.42907 -3.8225062,-2.22105 -1.101887,-0.82642 -2.1176421,-1.5663 -3.0473592,-2.22054 -0.8952831,-0.68868 -1.824826,-1.03301 -2.7889771,-1.03301 -0.72311328,0 -1.44626329,0.18915 -2.16937658,0.56792 -0.68867932,0.37878 -1.27388962,0.86105 -1.75596522,1.44643 l -5.9918823,7.85068 c 1.2051888,1.48066 2.6687314,2.82351 4.3904297,4.0287 1.7216984,1.20519 3.58130081,2.25542 5.5784709,3.15071 2.0316039,0.86084 4.1320842,1.53227 6.3014241,2.01435 2.2037739,0.48207 4.3904669,0.72347 6.5598059,0.72347 4.373114,0 8.298195,-0.72316 11.776026,-2.16938 3.512264,-1.48067 6.491077,-3.46096 8.935889,-5.94021 2.444811,-2.51367 4.321139,-5.44024 5.62963,-8.78034 1.308491,-3.3401 1.963188,-6.90412 1.963188,-10.69185 0,-2.65141 -0.39606,-4.92432 -1.188041,-6.81819 -0.757548,-1.89387 -1.790545,-3.51208 -3.099036,-4.855 -1.274057,-1.34293 -2.737599,-2.46214 -4.39043,-3.35742 -1.618396,-0.89528 -3.288332,-1.68689 -5.01003,-2.37557 -1.687264,-0.68868 -3.340474,-1.32613 -4.95887,-1.91151 -1.618397,-0.58538 -3.081423,-1.22231 -4.389913,-1.91099 -1.274057,-0.72311 -2.307571,-1.5492 -3.099553,-2.47892 -0.757547,-0.92971 -1.135848,-2.08341 -1.135848,-3.46077 0,-1.27406 0.189151,-2.445 0.567924,-3.51245 0.413208,-1.06745 1.015661,-1.997 1.807642,-2.78898 0.791981,-0.79198 1.773768,-1.41167 2.944523,-1.85931 1.205189,-0.44764 2.599762,-0.6718 4.183724,-0.6718 1.721698,0 3.219209,0.25864 4.493266,0.77515 1.274057,0.51651 2.393267,1.08448 3.357418,1.70429 0.998585,0.61981 1.893643,1.18777 2.685624,1.70429 0.791981,0.5165 1.584101,0.77514 2.376082,0.77514 0.826415,0 1.532323,-0.18966 2.1177,-0.56844 0.585378,-0.4132 1.187831,-1.01566 1.807642,-1.80764 l 5.062223,-6.92154 c -0.998585,-1.27405 -2.22125,-2.44447 -3.667476,-3.51193 -1.446227,-1.10189 -3.047192,-2.04919 -4.803325,-2.84117 -1.756132,-0.79198 -3.650219,-1.41167 -5.681823,-1.85932 -1.99717,-0.44764 -4.063166,-0.67128 -6.198072,-0.67128 z m 37.705192,6.86935 c -1.756132,0 -2.926552,0.82661 -3.51193,2.47944 l -4.493782,13.06742 -8.109066,1.65313 -0.72347,6.24974 c -0.17217,1.03302 -0.01699,1.82515 0.465088,2.37609 0.482075,0.51651 1.084528,0.77463 1.807641,0.77463 h 4.287077 l -2.737301,21.89995 c -0.206603,1.7217 -0.379028,3.11627 -0.516764,4.18373 -0.103302,1.03301 -0.189514,1.87686 -0.258382,2.53111 -0.03443,0.61981 -0.05168,1.10156 -0.05168,1.4459 v 0.87799 c 0.06887,1.92829 0.430443,3.65047 1.084688,5.16557 0.688679,1.51509 1.618739,2.82346 2.789494,3.92534 1.205188,1.06746 2.634246,1.89355 4.287077,2.47892 1.65283,0.55095 3.511916,0.82683 5.577954,0.82683 2.479245,0 4.941301,-0.37882 7.386112,-1.13637 2.444812,-0.79199 4.734959,-1.96292 6.869865,-3.51245 l -3.512447,-7.59281 c -0.241038,-0.48208 -0.481916,-0.82641 -0.722953,-1.03302 -0.206604,-0.24104 -0.550937,-0.36121 -1.033012,-0.36121 -0.309906,0 -0.585269,0.0684 -0.826306,0.20618 -0.241038,0.1033 -0.499675,0.24124 -0.775147,0.41342 -0.275472,0.13773 -0.602562,0.27567 -0.981335,0.41341 -0.34434,0.1033 -0.791611,0.15503 -1.342554,0.15503 -0.998585,0 -1.738978,-0.32761 -2.221053,-0.98186 -0.447642,-0.68868 -0.671794,-1.53201 -0.671794,-2.53059 v -0.25838 c 0,-0.17217 0.01724,-0.46478 0.05168,-0.87799 0.06887,-0.44764 0.15508,-1.06733 0.258382,-1.85931 0.103302,-0.82642 0.241241,-1.94563 0.413411,-3.35742 l 2.582272,-21.02197 H 81.549027 L 82.89158,573.63372 H 70.90885 l 1.962671,-15.65021 z m 92.558696,0 c -1.75614,0 -2.92707,0.82661 -3.51245,2.47944 l -4.49327,13.06742 -8.10958,1.65313 -0.72295,6.24974 c -0.17218,1.03302 -0.017,1.82515 0.46509,2.37609 0.48207,0.51651 1.08452,0.77463 1.80764,0.77463 h 4.28707 l -2.73781,21.89995 c -0.20661,1.7217 -0.37852,3.11627 -0.51625,4.18373 -0.1033,1.03301 -0.18951,1.87686 -0.25838,2.53111 -0.0344,0.61981 -0.0517,1.10156 -0.0517,1.4459 v 0.87799 c 0.0689,1.92829 0.43045,3.65047 1.08469,5.16557 0.68868,1.51509 1.61873,2.82346 2.78949,3.92534 1.20519,1.06746 2.63373,1.89355 4.28656,2.47892 1.65283,0.55095 3.51244,0.82683 5.57847,0.82683 2.47925,0 4.9413,-0.37882 7.38612,-1.13637 2.44481,-0.79199 4.73495,-1.96292 6.86986,-3.51245 l -3.51245,-7.59281 c -0.24104,-0.48208 -0.48191,-0.82641 -0.72295,-1.03302 -0.2066,-0.24104 -0.55093,-0.36121 -1.03301,-0.36121 -0.30991,0 -0.58579,0.0684 -0.82682,0.20618 -0.24104,0.1033 -0.49916,0.24124 -0.77463,0.41342 -0.27548,0.13773 -0.60257,0.27567 -0.98134,0.41341 -0.34434,0.1033 -0.79213,0.15503 -1.34307,0.15503 -0.99859,0 -1.73897,-0.32761 -2.22105,-0.98186 -0.44764,-0.68868 -0.67128,-1.53201 -0.67128,-2.53059 v -0.25838 c 0,-0.17217 0.0173,-0.46478 0.0517,-0.87799 0.0689,-0.44764 0.15507,-1.06733 0.25838,-1.85931 0.1033,-0.82642 0.24072,-1.94563 0.41289,-3.35742 l 2.58279,-21.02197 h 11.98273 l 1.34307,-10.95024 h -11.98273 l 1.96267,-15.65021 z m -37.7052,14.72055 c -5.23396,0 -10.03738,0.96455 -14.41049,2.89285 -4.37311,1.9283 -8.161285,4.52777 -11.363644,7.799 -3.167924,3.27123 -5.646705,7.09337 -7.437272,11.46649 -1.756132,4.33867 -2.634464,8.93569 -2.634464,13.79089 0,3.30565 0.413302,6.18102 1.239717,8.62583 0.826416,2.41038 1.928383,4.4074 3.305742,5.99136 1.377358,1.54953 2.961082,2.72046 4.751648,3.51245 1.790566,0.75755 3.650169,1.13637 5.578471,1.13637 3.236792,0 6.197842,-0.86109 8.883692,-2.58279 2.72029,-1.75613 5.1651,-4.14922 7.33444,-7.17941 v 3.87367 c 0,0.72312 0.069,1.39454 0.2067,2.01434 0.17217,0.61982 0.44754,1.15382 0.82631,1.60146 0.41321,0.44764 0.94721,0.80921 1.60145,1.08468 0.68868,0.24104 1.53201,0.36122 2.5306,0.36122 h 8.57415 l 6.50813,-52.01233 c -2.54812,-0.89528 -5.13086,-1.51498 -7.74785,-1.85931 -2.61697,-0.34434 -5.19921,-0.51677 -7.74733,-0.51677 z m 82.27974,0 c -3.58113,0 -6.71461,0.55124 -9.40046,1.65313 -2.68585,1.10189 -4.941,2.56542 -6.766,4.39043 -1.79056,1.79056 -3.15065,3.85656 -4.08037,6.19807 -0.89528,2.34151 -1.34307,4.75183 -1.34307,7.23108 0,1.99717 0.27537,3.7016 0.82631,5.11339 0.58538,1.4118 1.34301,2.59946 2.27273,3.5636 0.92971,0.96416 1.97995,1.77352 3.15071,2.42776 1.17075,0.61982 2.37617,1.17106 3.6158,1.65313 1.23962,0.48208 2.44452,0.92935 3.61528,1.34256 1.17075,0.37877 2.22099,0.82655 3.15071,1.34307 0.92972,0.48207 1.67012,1.06728 2.22106,1.75596 0.58537,0.68868 0.87798,1.56701 0.87798,2.63447 0,1.37735 -0.55073,2.58226 -1.65261,3.61528 -1.1019,0.99858 -2.78907,1.4981 -5.06171,1.4981 -1.6184,0 -2.92727,-0.2064 -3.92586,-0.6196 -0.99859,-0.41321 -1.85916,-0.86099 -2.58227,-1.34307 l -2.01435,-1.34307 c -0.61981,-0.41322 -1.36021,-0.6196 -2.22105,-0.6196 -0.92972,0 -1.72184,0.20638 -2.37608,0.6196 -0.61981,0.37877 -1.17054,0.91277 -1.65262,1.60145 l -3.92585,5.88801 c 0.75754,0.92972 1.73933,1.80754 2.94452,2.63395 1.20519,0.79198 2.53079,1.48064 3.97702,2.06602 1.48066,0.58538 3.04714,1.05041 4.69997,1.39475 1.65283,0.34434 3.32328,0.51677 5.01055,0.51677 3.54669,0 6.73138,-0.51676 9.55497,-1.54978 2.85802,-1.06745 5.28611,-2.47927 7.28327,-4.2354 1.99718,-1.79057 3.52917,-3.87381 4.59662,-6.24975 1.06746,-2.41038 1.60146,-4.95864 1.60146,-7.64449 0,-1.89388 -0.29313,-3.52932 -0.8785,-4.90668 -0.55095,-1.37736 -1.29082,-2.56554 -2.22054,-3.56412 -0.92971,-0.99859 -1.9972,-1.84192 -3.20239,-2.5306 -1.17075,-0.68868 -2.37617,-1.29113 -3.6158,-1.80764 -1.23962,-0.55095 -2.46177,-1.03322 -3.66696,-1.44642 -1.17075,-0.44764 -2.22099,-0.92991 -3.15071,-1.44643 -0.92972,-0.5165 -1.68736,-1.10172 -2.27273,-1.75596 -0.55095,-0.65425 -0.82631,-1.44637 -0.82631,-2.37609 0,-1.44622 0.499,-2.61664 1.49759,-3.51193 1.03302,-0.92971 2.73744,-1.39474 5.11338,-1.39474 1.27406,0 2.39327,0.15518 3.35742,0.46509 0.99858,0.3099 1.87692,0.67148 2.63446,1.08468 0.79199,0.37878 1.51462,0.72311 2.16886,1.03302 0.68868,0.3099 1.37786,0.46457 2.06654,0.46457 0.68868,0 1.23941,-0.13794 1.65261,-0.41341 0.41321,-0.27548 0.861,-0.72275 1.34308,-1.34256 l 4.13204,-5.68182 c -1.825,-1.79057 -4.14963,-3.30532 -6.97321,-4.54494 -2.78916,-1.23962 -5.97436,-1.85984 -9.55549,-1.85984 z m -84.55247,11.00191 h 0.98134 l -1.91099,14.8239 c -0.58538,2.30708 -1.29129,4.47602 -2.1177,6.50762 -0.82642,2.0316 -1.73872,3.80499 -2.73731,5.32009 -0.96415,1.51509 -1.99715,2.72051 -3.09903,3.6158 -1.10189,0.86084 -2.23834,1.29139 -3.4091,1.29139 -0.75754,0 -1.46345,-0.17242 -2.1177,-0.51676 -0.61981,-0.34434 -1.17105,-0.87783 -1.65312,-1.60094 -0.44764,-0.75755 -0.809219,-1.73882 -1.084693,-2.94401 -0.275472,-1.20519 -0.412895,-2.66873 -0.412895,-4.39043 0,-3.03019 0.413305,-5.87106 1.239718,-8.52247 0.86085,-2.68585 2.06576,-5.02721 3.61528,-7.02438 1.54953,-2.03161 3.39189,-3.63309 5.5268,-4.80384 2.16934,-1.17076 4.56242,-1.75597 7.1794,-1.75597 z" /><path
         id="path1610"
         style="fill:#50adf9;fill-opacity:1;stroke:none;stroke-width:0.240594px;stroke-linecap:butt;stroke-linejoin:miter;stroke-opacity:1"
         d="m 88.051473,592.80464 c -0.432504,-0.007 -0.864098,0.003 -1.296045,0.005 -0.321934,0.67185 -0.63267,1.35249 -0.919324,2.05259 -1.75613,4.33866 -2.634464,8.93569 -2.634464,13.79089 0,3.30564 0.413303,6.18102 1.239717,8.62583 0.826416,2.41038 1.928384,4.4074 3.305742,5.99136 1.377356,1.54953 2.961084,2.72046 4.751648,3.51245 1.790564,0.75755 3.650171,1.13637 5.578471,1.13637 3.236792,0 6.197852,-0.86109 8.883692,-2.58279 2.72029,-1.75613 5.1651,-4.14922 7.33444,-7.17941 v 3.87367 c 0,0.72312 0.069,1.39454 0.2067,2.01434 0.17217,0.61982 0.44754,1.15382 0.82631,1.60146 0.41321,0.44764 0.94721,0.80921 1.60145,1.08468 0.68868,0.24104 1.53201,0.36122 2.5306,0.36122 h 8.57415 l 2.60036,-20.78271 c -5.11573,-1.84126 -10.15336,-4.0869 -15.20527,-6.24561 -0.49568,1.73969 -1.06181,3.39898 -1.70222,4.97334 -0.82642,2.0316 -1.73872,3.80499 -2.73731,5.32009 -0.96414,1.51508 -1.99715,2.72051 -3.09903,3.6158 -1.10189,0.86084 -2.23834,1.29139 -3.4091,1.29139 -0.75753,0 -1.46345,-0.17242 -2.1177,-0.51676 -0.6198,-0.34434 -1.17106,-0.87783 -1.65312,-1.60094 -0.44764,-0.75755 -0.809219,-1.73882 -1.084693,-2.94401 -0.275472,-1.20518 -0.412895,-2.66873 -0.412895,-4.39043 0,-3.03018 0.413306,-5.87107 1.239718,-8.52247 0.27362,-0.8537 0.59477,-1.65969 0.93793,-2.44378 -3.569874,-1.01023 -7.194233,-1.72571 -10.909414,-1.94924 -0.811185,-0.0488 -1.621209,-0.079 -2.430343,-0.0925 z M 68.245964,595.328 c -5.42844,1.29588 -10.837081,2.92532 -16.244487,4.5713 l -0.823206,6.58461 c -0.206602,1.7217 -0.379028,3.11627 -0.516764,4.18373 -0.103302,1.033 -0.189514,1.87686 -0.258382,2.53111 -0.03443,0.61981 -0.05168,1.10156 -0.05168,1.4459 v 0.87799 c 0.06887,1.92828 0.430444,3.65047 1.084688,5.16557 0.688678,1.51509 1.61874,2.82346 2.789494,3.92534 1.205186,1.06746 2.634247,1.89355 4.287077,2.47892 1.652828,0.55095 3.511918,0.82683 5.577954,0.82683 2.479242,0 4.941304,-0.37882 7.386112,-1.13637 2.44481,-0.79199 4.734961,-1.96292 6.869865,-3.51245 l -3.512447,-7.59281 c -0.241038,-0.48208 -0.481917,-0.82641 -0.722953,-1.03302 -0.206604,-0.24104 -0.550938,-0.36121 -1.033012,-0.36121 -0.309906,0 -0.58527,0.0684 -0.826306,0.20618 -0.241038,0.1033 -0.499675,0.24124 -0.775147,0.41342 -0.275472,0.13773 -0.602563,0.27567 -0.981335,0.41341 -0.34434,0.1033 -0.791612,0.15503 -1.342554,0.15503 -0.998584,0 -1.738979,-0.32761 -2.221053,-0.98186 -0.447642,-0.68868 -0.671794,-1.53201 -0.671794,-2.53059 v -0.25838 c 0,-0.17217 0.01724,-0.46478 0.05168,-0.87799 0.06887,-0.44764 0.15508,-1.06733 0.258382,-1.85931 0.103302,-0.82642 0.241241,-1.94563 0.413411,-3.35742 z m 141.063226,5.12889 c -7.57068,-0.0996 -15.1414,1.33608 -22.718,3.12229 0.98209,0.49545 1.98217,0.9551 3.01171,1.35547 1.23962,0.48208 2.44452,0.92935 3.61528,1.34256 1.17075,0.37877 2.22099,0.82655 3.15071,1.34307 0.92972,0.48207 1.67012,1.06728 2.22106,1.75596 0.58536,0.68868 0.87798,1.56701 0.87798,2.63447 0,1.37734 -0.55074,2.58226 -1.65261,3.61528 -1.1019,0.99858 -2.78907,1.4981 -5.06171,1.4981 -1.6184,0 -2.92727,-0.2064 -3.92586,-0.6196 -0.99859,-0.41321 -1.85916,-0.86099 -2.58227,-1.34307 l -2.01435,-1.34307 c -0.61981,-0.41322 -1.36021,-0.6196 -2.22105,-0.6196 -0.92972,0 -1.72184,0.20638 -2.37608,0.6196 -0.61981,0.37877 -1.17054,0.91277 -1.65262,1.60145 l -3.92585,5.88801 c 0.75753,0.92972 1.73933,1.80754 2.94452,2.63395 1.20519,0.79198 2.53079,1.48064 3.97702,2.06602 1.48066,0.58538 3.04714,1.05041 4.69997,1.39475 1.65283,0.34434 3.32328,0.51677 5.01055,0.51677 3.54668,0 6.73138,-0.51676 9.55497,-1.54978 2.85801,-1.06745 5.28612,-2.47927 7.28327,-4.2354 1.99718,-1.79057 3.52917,-3.87381 4.59662,-6.24975 1.06746,-2.41038 1.60146,-4.95865 1.60146,-7.64449 0,-1.89388 -0.29313,-3.52932 -0.8785,-4.90668 -0.41893,-1.0473 -0.94869,-1.98387 -1.58647,-2.81223 -0.64996,-0.0318 -1.2998,-0.0555 -1.94975,-0.0641 z m -166.69422,2.2226 c -5.423448,1.52107 -10.859483,2.82131 -16.327686,3.54811 -0.259158,2.47965 -1.080328,4.43102 -2.484086,5.83478 -1.687262,1.68727 -4.098112,2.5306 -7.2316,2.5306 -2.134904,0 -3.942266,-0.32709 -5.422924,-0.98134 -1.4462265,-0.68868 -2.7206204,-1.42907 -3.8225062,-2.22105 -1.1018859,-0.82642 -2.117643,-1.5663 -3.0473592,-2.22054 -0.8952822,-0.68868 -1.8248269,-1.03301 -2.7889771,-1.03301 -0.72311251,0 -1.44626402,0.18915 -2.16937658,0.56792 -0.68867862,0.37878 -1.27389002,0.86105 -1.75596522,1.44643 l -5.9918823,7.85068 c 1.2051876,1.48066 2.6687331,2.82351 4.3904297,4.0287 1.7216967,1.20518 3.58130278,2.25542 5.5784709,3.15071 2.0316018,0.86084 4.1320864,1.53227 6.3014241,2.01435 2.2037719,0.48206 4.3904699,0.72347 6.5598059,0.72347 4.37311,0 8.298198,-0.72316 11.776026,-2.16938 3.51226,-1.48067 6.491079,-3.46096 8.935889,-5.94021 2.444808,-2.51366 4.32114,-5.44024 5.62963,-8.78034 1.035158,-2.64238 1.654334,-5.42732 1.870687,-8.34988 z m 116.42959,6.88847 c -4.38141,0.54669 -8.76787,0.74414 -13.15992,0.36845 -0.85084,-0.0728 -1.69539,-0.17844 -2.53732,-0.29817 -0.038,0.30226 -0.0932,0.76675 -0.12712,1.0294 -0.1033,1.033 -0.18951,1.87686 -0.25838,2.53111 -0.0344,0.61981 -0.0517,1.10156 -0.0517,1.4459 v 0.87799 c 0.0689,1.92828 0.43045,3.65047 1.08469,5.16557 0.68868,1.51509 1.61873,2.82346 2.78949,3.92534 1.20519,1.06746 2.63373,1.89355 4.28656,2.47892 1.65283,0.55095 3.51245,0.82683 5.57847,0.82683 2.47925,0 4.9413,-0.37882 7.38612,-1.13637 2.4448,-0.79199 4.73495,-1.96292 6.86986,-3.51245 l -3.51245,-7.59281 c -0.24104,-0.48208 -0.48191,-0.82641 -0.72295,-1.03302 -0.2066,-0.24104 -0.55093,-0.36121 -1.03301,-0.36121 -0.30991,0 -0.5858,0.0684 -0.82682,0.20618 -0.24104,0.1033 -0.49916,0.24124 -0.77463,0.41342 -0.27548,0.13773 -0.60257,0.27567 -0.98134,0.41341 -0.34434,0.1033 -0.79213,0.15503 -1.34307,0.15503 -0.99859,0 -1.73897,-0.32761 -2.22105,-0.98186 -0.44764,-0.68868 -0.67128,-1.53201 -0.67128,-2.53059 v -0.25838 c 0,-0.17217 0.0173,-0.46478 0.0517,-0.87799 0.0465,-0.30206 0.11195,-0.79587 0.17415,-1.2547 z" /><path
         id="path1612"
         style="fill:#50adf9;fill-opacity:1;stroke:none;stroke-width:0.240594px;stroke-linecap:butt;stroke-linejoin:miter;stroke-opacity:1"
         d="m -55.317554,587.26855 c -5.796907,0.40201 -11.551169,1.52013 -17.295585,2.90008 l -4.561479,36.92384 h 27.065015 c 3.959902,0 7.730325,-0.48176 11.311454,-1.4459 3.615564,-0.96415 6.938715,-2.34148 9.968901,-4.13205 3.06462,-1.79057 5.819285,-3.94278 8.264095,-6.45646 2.479244,-2.5481 4.579728,-5.38899 6.301424,-8.52247 1.220406,-2.24555 2.231635,-4.6183 3.054077,-7.10603 -5.162243,-2.28812 -10.294287,-4.73502 -15.487426,-6.86573 -0.24882,1.59586 -0.577745,3.12202 -0.995805,4.5713 -1.033018,3.58112 -2.513806,6.6284 -4.442106,9.14208 -1.9283,2.51366 -4.269664,4.45949 -7.024378,5.83685 -2.754715,1.34292 -5.853713,2.01435 -9.297107,2.01435 h -10.12393 z m -90.373816,1.58233 -4.72425,38.24159 h 27.06501 c 3.95991,0 7.73033,-0.48176 11.31145,-1.4459 3.61557,-0.96415 6.93872,-2.34148 9.9689,-4.13205 3.064626,-1.79057 5.81929,-3.94278 8.2641,-6.45646 2.479242,-2.5481 4.579726,-5.38899 6.301424,-8.52247 1.721696,-3.16793 3.047302,-6.57677 3.977018,-10.22677 0.291484,-1.15514 0.520765,-2.33787 0.720886,-3.53363 -5.987771,1.56908 -11.988176,3.07946 -18.038178,4.02559 -0.0307,0.11057 -0.0572,0.22462 -0.0889,0.33435 -1.03302,3.58112 -2.5138,6.6284 -4.44211,9.14208 -1.92828,2.51366 -4.26967,4.45949 -7.02437,5.83685 -2.75472,1.34292 -5.85423,2.01435 -9.29763,2.01435 h -10.12341 l 2.54248,-20.93309 c -5.54196,-1.80419 -11.07234,-3.61971 -16.41244,-4.34444 z m 233.742843,3.95376 c -0.432504,-0.007 -0.864098,0.003 -1.296045,0.005 -0.321934,0.67185 -0.63267,1.35249 -0.919324,2.05259 -1.75613,4.33866 -2.634464,8.93569 -2.634464,13.79089 0,3.30564 0.413303,6.18102 1.239717,8.62583 0.826416,2.41038 1.928384,4.4074 3.305742,5.99136 1.377356,1.54953 2.961084,2.72046 4.751648,3.51245 1.790564,0.75755 3.650171,1.13637 5.578471,1.13637 3.236792,0 6.197852,-0.86109 8.883692,-2.58279 2.72029,-1.75613 5.1651,-4.14922 7.33444,-7.17941 v 3.87367 c 0,0.72312 0.069,1.39454 0.2067,2.01434 0.17217,0.61982 0.44754,1.15382 0.82631,1.60146 0.41321,0.44764 0.94721,0.80921 1.60145,1.08468 0.68868,0.24104 1.53201,0.36122 2.5306,0.36122 h 8.57415 l 2.60036,-20.78271 c -5.11573,-1.84126 -10.15336,-4.0869 -15.20527,-6.24561 -0.49568,1.73969 -1.06181,3.39898 -1.70222,4.97334 -0.82642,2.0316 -1.73872,3.80499 -2.73731,5.32009 -0.96414,1.51508 -1.99715,2.72051 -3.09903,3.6158 -1.10189,0.86084 -2.23834,1.29139 -3.4091,1.29139 -0.75753,0 -1.46345,-0.17242 -2.1177,-0.51676 -0.6198,-0.34434 -1.17106,-0.87783 -1.65312,-1.60094 -0.44764,-0.75755 -0.809219,-1.73882 -1.084693,-2.94401 -0.275472,-1.20518 -0.412895,-2.66873 -0.412895,-4.39043 0,-3.03018 0.413306,-5.87107 1.239718,-8.52247 0.27362,-0.8537 0.59477,-1.65969 0.93793,-2.44378 -3.569874,-1.01023 -7.194233,-1.72571 -10.909414,-1.94924 -0.811185,-0.0488 -1.621209,-0.079 -2.430343,-0.0925 z M 68.245964,595.328 c -5.42844,1.29588 -10.837081,2.92532 -16.244487,4.5713 l -0.823206,6.58461 c -0.206602,1.7217 -0.379028,3.11627 -0.516764,4.18373 -0.103302,1.033 -0.189514,1.87686 -0.258382,2.53111 -0.03443,0.61981 -0.05168,1.10156 -0.05168,1.4459 v 0.87799 c 0.06887,1.92828 0.430444,3.65047 1.084688,5.16557 0.688678,1.51509 1.61874,2.82346 2.789494,3.92534 1.205186,1.06746 2.634247,1.89355 4.287077,2.47892 1.652828,0.55095 3.511918,0.82683 5.577954,0.82683 2.479242,0 4.941304,-0.37882 7.386112,-1.13637 2.44481,-0.79199 4.734961,-1.96292 6.869865,-3.51245 l -3.512447,-7.59281 c -0.241038,-0.48208 -0.481917,-0.82641 -0.722953,-1.03302 -0.206604,-0.24104 -0.550938,-0.36121 -1.033012,-0.36121 -0.309906,0 -0.58527,0.0684 -0.826306,0.20618 -0.241038,0.1033 -0.499675,0.24124 -0.775147,0.41342 -0.275472,0.13773 -0.602563,0.27567 -0.981335,0.41341 -0.34434,0.1033 -0.791612,0.15503 -1.342554,0.15503 -0.998584,0 -1.738979,-0.32761 -2.221053,-0.98186 -0.447642,-0.68868 -0.671794,-1.53201 -0.671794,-2.53059 v -0.25838 c 0,-0.17217 0.01724,-0.46478 0.05168,-0.87799 0.06887,-0.44764 0.15508,-1.06733 0.258382,-1.85931 0.103302,-0.82642 0.241241,-1.94563 0.413411,-3.35742 z m 141.063226,5.12889 c -7.57068,-0.0996 -15.1414,1.33608 -22.718,3.12229 0.98209,0.49545 1.98217,0.9551 3.01171,1.35547 1.23962,0.48208 2.44452,0.92935 3.61528,1.34256 1.17075,0.37877 2.22099,0.82655 3.15071,1.34307 0.92972,0.48207 1.67012,1.06728 2.22106,1.75596 0.58536,0.68868 0.87798,1.56701 0.87798,2.63447 0,1.37734 -0.55074,2.58226 -1.65261,3.61528 -1.1019,0.99858 -2.78907,1.4981 -5.06171,1.4981 -1.6184,0 -2.92727,-0.2064 -3.92586,-0.6196 -0.99859,-0.41321 -1.85916,-0.86099 -2.58227,-1.34307 l -2.01435,-1.34307 c -0.61981,-0.41322 -1.36021,-0.6196 -2.22105,-0.6196 -0.92972,0 -1.72184,0.20638 -2.37608,0.6196 -0.61981,0.37877 -1.17054,0.91277 -1.65262,1.60145 l -3.92585,5.88801 c 0.75753,0.92972 1.73933,1.80754 2.94452,2.63395 1.20519,0.79198 2.53079,1.48064 3.97702,2.06602 1.48066,0.58538 3.04714,1.05041 4.69997,1.39475 1.65283,0.34434 3.32328,0.51677 5.01055,0.51677 3.54668,0 6.73138,-0.51676 9.55497,-1.54978 2.85801,-1.06745 5.28612,-2.47927 7.28327,-4.2354 1.99718,-1.79057 3.52917,-3.87381 4.59662,-6.24975 1.06746,-2.41038 1.60146,-4.95865 1.60146,-7.64449 0,-1.89388 -0.29313,-3.52932 -0.8785,-4.90668 -0.41893,-1.0473 -0.94869,-1.98387 -1.58647,-2.81223 -0.64996,-0.0318 -1.2998,-0.0555 -1.94975,-0.0641 z m -166.69422,2.2226 c -5.423448,1.52107 -10.859483,2.82131 -16.327686,3.54811 -0.259158,2.47965 -1.080328,4.43102 -2.484086,5.83478 -1.687262,1.68727 -4.098112,2.5306 -7.2316,2.5306 -2.134904,0 -3.942266,-0.32709 -5.422924,-0.98134 -1.4462265,-0.68868 -2.7206204,-1.42907 -3.8225062,-2.22105 -1.1018859,-0.82642 -2.117643,-1.5663 -3.0473592,-2.22054 -0.8952822,-0.68868 -1.8248269,-1.03301 -2.7889771,-1.03301 -0.72311251,0 -1.44626402,0.18915 -2.16937658,0.56792 -0.68867862,0.37878 -1.27389002,0.86105 -1.75596522,1.44643 l -5.9918823,7.85068 c 1.2051876,1.48066 2.6687331,2.82351 4.3904297,4.0287 1.7216967,1.20518 3.58130278,2.25542 5.5784709,3.15071 2.0316018,0.86084 4.1320864,1.53227 6.3014241,2.01435 2.2037719,0.48206 4.3904699,0.72347 6.5598059,0.72347 4.37311,0 8.298198,-0.72316 11.776026,-2.16938 3.51226,-1.48067 6.491079,-3.46096 8.935889,-5.94021 2.444808,-2.51366 4.32114,-5.44024 5.62963,-8.78034 1.035158,-2.64238 1.654334,-5.42732 1.870687,-8.34988 z m 116.42959,6.88847 c -4.38141,0.54669 -8.76787,0.74414 -13.15992,0.36845 -0.85084,-0.0728 -1.69539,-0.17844 -2.53732,-0.29817 -0.038,0.30226 -0.0932,0.76675 -0.12712,1.0294 -0.1033,1.033 -0.18951,1.87686 -0.25838,2.53111 -0.0344,0.61981 -0.0517,1.10156 -0.0517,1.4459 v 0.87799 c 0.0689,1.92828 0.43045,3.65047 1.08469,5.16557 0.68868,1.51509 1.61873,2.82346 2.78949,3.92534 1.20519,1.06746 2.63373,1.89355 4.28656,2.47892 1.65283,0.55095 3.51245,0.82683 5.57847,0.82683 2.47925,0 4.9413,-0.37882 7.38612,-1.13637 2.4448,-0.79199 4.73495,-1.96292 6.86986,-3.51245 l -3.51245,-7.59281 c -0.24104,-0.48208 -0.48191,-0.82641 -0.72295,-1.03302 -0.2066,-0.24104 -0.55093,-0.36121 -1.03301,-0.36121 -0.30991,0 -0.5858,0.0684 -0.82682,0.20618 -0.24104,0.1033 -0.49916,0.24124 -0.77463,0.41342 -0.27548,0.13773 -0.60257,0.27567 -0.98134,0.41341 -0.34434,0.1033 -0.79213,0.15503 -1.34307,0.15503 -0.99859,0 -1.73897,-0.32761 -2.22105,-0.98186 -0.44764,-0.68868 -0.67128,-1.53201 -0.67128,-2.53059 v -0.25838 c 0,-0.17217 0.0173,-0.46478 0.0517,-0.87799 0.0465,-0.30206 0.11195,-0.79587 0.17415,-1.2547 z" /><path
         id="path1614"
         style="font-style:italic;font-weight:900;font-size:103.302px;line-height:1.25;font-family:Lato;-inkscape-font-specification:'Lato Heavy Italic';letter-spacing:0px;word-spacing:0px;fill:#c5d8f4;fill-opacity:1;stroke-width:0.240594"
         d="m -141.11852,551.83712 -9.2971,75.25535 h 27.06501 c 3.95991,0 7.73032,-0.48175 11.31145,-1.4459 3.61557,-0.96415 6.93871,-2.34148 9.9689,-4.13205 3.064625,-1.79057 5.819288,-3.94278 8.2641,-6.45646 2.479245,-2.54811 4.579725,-5.38898 6.301424,-8.52247 1.721698,-3.16793 3.047301,-6.57677 3.977018,-10.22677 0.929717,-3.68443 1.394747,-7.57555 1.394747,-11.67319 0,-4.68302 -0.740393,-9.02192 -2.221053,-13.01626 -1.480661,-3.99434 -3.598384,-7.45491 -6.353101,-10.38179 -2.754717,-2.92689 -6.111829,-5.21652 -10.071735,-6.86935 -3.92547,-1.68727 -8.35058,-2.53111 -13.27464,-2.53111 z m 73.241009,0 -9.297107,75.25535 h 27.065015 c 3.959906,0 7.730321,-0.48175 11.311454,-1.4459 3.615567,-0.96415 6.938712,-2.34148 9.968901,-4.13205 3.064623,-1.79057 5.819283,-3.94278 8.264095,-6.45646 2.479246,-2.54811 4.579726,-5.38898 6.301424,-8.52247 1.721698,-3.16793 3.047301,-6.57677 3.977018,-10.22677 0.9297175,-3.68443 1.3947473,-7.57555 1.3947473,-11.67319 0,-4.68302 -0.7403925,-9.02192 -2.2210533,-13.01626 -1.48066,-3.99434 -3.598383,-7.45491 -6.3531,-10.38179 -2.754718,-2.92689 -6.111831,-5.21652 -10.071737,-6.86935 -3.925472,-1.68727 -8.350584,-2.53111 -13.274642,-2.53111 z m -57.952539,12.96458 h 10.12393 c 2.61699,0 4.9411,0.48176 6.97271,1.44591 2.0316,0.96415 3.73602,2.32475 5.11338,4.08089 1.41179,1.75613 2.46203,3.89057 3.15071,6.40426 0.723112,2.47924 1.084689,5.25166 1.084689,8.31628 0,4.47642 -0.516241,8.50496 -1.549259,12.08609 -1.03302,3.58113 -2.5138,6.6284 -4.44211,9.14208 -1.92829,2.51367 -4.26966,4.45949 -7.02437,5.83685 -2.75472,1.34292 -5.85423,2.01435 -9.29763,2.01435 h -10.12341 z m 73.241529,0 h 10.123413 c 2.616982,0 4.941097,0.48176 6.972701,1.44591 2.031604,0.96415 3.736024,2.32475 5.113383,4.08089 1.411792,1.75613 2.462033,3.89057 3.150712,6.40426 0.723113,2.47924 1.084688,5.25166 1.084688,8.31628 0,4.47642 -0.51624,8.50496 -1.549259,12.08609 -1.033019,3.58113 -2.513804,6.6284 -4.442106,9.14208 -1.928302,2.51367 -4.269661,4.45949 -7.024378,5.83685 -2.754718,1.34292 -5.85371,2.01435 -9.297107,2.01435 h -10.12393 z" /><path
         id="path1616"
         style="fill:#a8bbd6;fill-opacity:1;stroke:none;stroke-width:0.240594px;stroke-linecap:butt;stroke-linejoin:miter;stroke-opacity:1"
         d="m -55.317554,587.26855 c -5.796907,0.40201 -11.551169,1.52013 -17.295585,2.90008 l -4.561479,36.92384 h 27.065015 c 3.959902,0 7.730325,-0.48176 11.311454,-1.4459 3.615564,-0.96415 6.938715,-2.34148 9.968901,-4.13205 3.06462,-1.79057 5.819285,-3.94278 8.264095,-6.45646 2.479244,-2.5481 4.579728,-5.38899 6.301424,-8.52247 1.220406,-2.24555 2.231635,-4.6183 3.054077,-7.10603 -5.162243,-2.28812 -10.294287,-4.73502 -15.487426,-6.86573 -0.24882,1.59586 -0.577745,3.12202 -0.995805,4.5713 -1.033018,3.58112 -2.513806,6.6284 -4.442106,9.14208 -1.9283,2.51366 -4.269664,4.45949 -7.024378,5.83685 -2.754715,1.34292 -5.853713,2.01435 -9.297107,2.01435 h -10.12393 z m -90.373816,1.58233 -4.72425,38.24159 h 27.06501 c 3.95991,0 7.73033,-0.48176 11.31145,-1.4459 3.61557,-0.96415 6.93872,-2.34148 9.9689,-4.13205 3.064626,-1.79057 5.81929,-3.94278 8.2641,-6.45646 2.479242,-2.5481 4.579726,-5.38899 6.301424,-8.52247 1.721696,-3.16793 3.047302,-6.57677 3.977018,-10.22677 0.291484,-1.15514 0.520765,-2.33787 0.720886,-3.53363 -5.987771,1.56908 -11.988176,3.07946 -18.038178,4.02559 -0.0307,0.11057 -0.0572,0.22462 -0.0889,0.33435 -1.03302,3.58112 -2.5138,6.6284 -4.44211,9.14208 -1.92828,2.51366 -4.26967,4.45949 -7.02437,5.83685 -2.75472,1.34292 -5.85423,2.01435 -9.29763,2.01435 h -10.12341 l 2.54248,-20.93309 c -5.54196,-1.80419 -11.07234,-3.61971 -16.41244,-4.34444 z" /></g></g></svg>
